<?xml version="1.0" encoding="utf-8"?>
<!-- Generator: Adobe Illustrator 26.0.2, SVG Export Plug-In . SVG Version: 6.00 Build 0)  -->
<svg version="1.1" id="website_letter" xmlns="http://www.w3.org/2000/svg" xmlns:xlink="http://www.w3.org/1999/xlink" x="0px"
	 y="0px" viewBox="0 0 342.7 1080" style="enable-background:new 0 0 342.7 1080;" xml:space="preserve">
<style type="text/css">
	.st0{fill:#FFFFFF;}
</style>
<g id="_-">
	<path class="st0" d="M2.8,622.7C0.7,582.6,0.2,541.3,0,501c-0.1-13.6,0-27.2,0.3-40.8c0-2.2,1.8-3.9,4-3.8
		c20.8,0.5,41.7,1.4,62.5,2c48.6,1.5,97.2-0.5,145.8-1.9c41.7-0.9,83.3-1.2,125-1.1c2.8,0,5,2.2,5.1,4.9c0,0,0,0.1,0,0.1
		c-0.2,40.2-0.7,81.6-1.7,121.8c-0.4,13.5-0.8,27.1-1.3,40.6c0,1.1-0.9,2-2.1,2c-1.1,0-2-0.9-2-2c-0.5-13.5-0.9-27.1-1.3-40.6
		c-1-40.2-1.5-81.6-1.7-121.8l5.1,5.1c-41.7,0.1-83.3-0.3-125-1.1c-48.6-1.4-97.2-3.5-145.8-1.9c-20.8,0.6-41.7,1.6-62.5,2l4-4
		c0.3,13.5,0.4,27.1,0.3,40.6c0,26.3-0.5,55-1.2,81.2c-0.4,13.5-0.9,27.1-1.6,40.6c0,0.9-0.8,1.5-1.6,1.5c0,0,0,0,0,0
		C3.5,624.2,2.8,623.5,2.8,622.7L2.8,622.7z"/>
	<path class="st0" d="M42.8,582.4l-2.4-81.8c-0.1-2.3,1.8-4.3,4.1-4.4c26.4,0.7,52.8,2.9,79.2,2.9c26.4,0.4,52.6-1.7,79-2.6
		c21.1-0.6,42.1-0.7,63.2-0.7c10.6,0,21.2-0.1,31.8,0c2.6,0,4.6,2.1,4.6,4.7c0,0.1,0,0.1,0,0.2l-3.5,81.8c-0.1,0.7-0.7,1.2-1.4,1.2
		c-0.6-0.1-1.1-0.5-1.2-1.2l-3.5-81.8l4.8,4.8c-31.6,0-63.2,0.2-94.8-0.7c-21-0.7-42.1-2.3-63.2-2.6c-31.6-0.7-63.2,1.9-94.8,2.8
		l4.4-4.4l-2.4,81.8c-0.3,1.1-1.3,1.7-2.4,1.5C43.5,583.7,43,583.2,42.8,582.4L42.8,582.4z"/>
	<path class="st0" d="M62.7,562.3l-1.8-41.4c-0.1-2.1,1.6-3.9,3.7-4c0.1,0,0.2,0,0.3,0c17.7-1.5,35.4,0.7,53.1,1.8
		c22,1.6,44.4,0.4,66.4-1.4c17.7-1.1,35.4-1.3,53.1-1.3c12.8,0.2,27.1-0.4,39.8,0.8c2.1-0.1,4,1.5,4.1,3.7c0,0.1,0,0.3,0,0.4
		l-3,41.4c0,0.6-0.5,1-1.1,1c0,0,0,0,0,0c-0.5,0-1-0.5-1-1l-3-41.4l4.1,4.1c-8.8,0.9-17.7,0.8-26.5,0.8c-8,0-18.8,0.1-26.5,0
		c-17.4-0.1-35.6-0.7-53.1-2.2c-17.7-1.4-35.4-1.6-53.1-0.4c-17.7,1-35.4,3.2-53.1,1.8l4-4L67,562.3c0,1.2-1,2.1-2.1,2.1
		C63.7,564.4,62.8,563.5,62.7,562.3L62.7,562.3z"/>
</g>
</svg>
