<svg id="website_letter" data-name="website letter" xmlns="http://www.w3.org/2000/svg" viewBox="0 0 654.16 947.64"><defs><style>.cls-1{fill:#fff;}</style></defs><g id="_0" data-name="0"><path class="cls-1" d="M280.66,1012.51C177,980.67,133.9,875.71,115.48,777.52,97.5,678.76,96.24,578,100.09,478c5.9-113.42,23.42-269.8,112.75-349.11,28.81-25.83,63-40.73,100.29-49.65,61.06-14.43,124.81-16.06,187-8.47C550,77.36,600.9,92.43,639,126.8,714.54,194.14,735.82,306.67,745.89,403a1655.36,1655.36,0,0,1-.46,300.08c-11.49,107.61-38,239-140.73,295.78a206.81,206.81,0,0,1-34.92,15,3.1,3.1,0,0,1-2-5.88c47.06-15.41,85.91-49.83,110.47-92.42,37.25-64.59,50.44-140,57.91-213.37,6.89-74.31,7.55-149.23,4.77-223.78-2.67-62.08-8.25-124.14-22.8-184.52-17.55-73.61-52.71-149.92-122.24-187-29.94-16-63.26-24.25-96.75-29.52-78.6-11-184.51-8.82-254.41,31.87-117.64,70.37-131.68,245-136.78,369.1-2.19,74.6-1.53,149.52,5.46,223.85,4.76,49.33,12.7,98.71,28,145.92,22.45,71.47,66.48,136.48,140.28,161.14a1.71,1.71,0,0,1-1.07,3.25Z" transform="translate(-98.31 -66.34)"/><path class="cls-1" d="M479.65,843.58c5.49-12.34,8.13-25.83,10.17-39.17s3.11-27.08,3.85-40.71c2.32-52.93.05-111.32.55-164.52-.18-54.93.71-109.86,1.74-164.78.56-36.09,1.77-77.3-2.08-113-3.35-28.38-7.89-64.35-31.77-83-17.61-14-45.94-14.8-65.48-4.49-20.83,11.45-29.36,35.41-33.42,57.63-3.81,20-5.33,40.38-6.25,60.75-1.7,75.59.06,170.94-.73,246.93l-.33,82.39c-.2,40.95-1,82.14,5.19,122.69,2.12,13.2,4.93,26.6,10.5,38.71A3.09,3.09,0,0,1,366,845.7c-6.29-12.72-9.46-26.48-12-40.27-4.79-27.32-6.14-55-6.77-82.62-.88-89.39-.86-198.81-.8-288.4.25-43.74-.66-91.15,6.65-134.28,4.12-24.09,11.13-50.26,31.36-66,21.67-17.22,59-16.75,80.18,1,20.78,17.21,26.45,45.18,30.24,70.54,4,29,5.12,58.3,5.59,87.53.77,54.28,2.17,110.63,2.35,164.77.23,38.13,0,85.27-.21,123.58-.52,48,.26,97.23-12.4,144a107.17,107.17,0,0,1-7.54,19.54,1.71,1.71,0,0,1-3.07-1.51Z" transform="translate(-98.31 -66.34)"/><path class="cls-1" d="M503,855.06c6-13.39,9.18-27.95,11.53-42.36,4-25.18,5.16-51.51,5.59-77,.1-61.11-1-127.42-.66-188.57-.08-59.16,2-118.37,2-177.52-.5-29.45-2.11-59.09-8.36-87.93-4.78-21.76-12.86-41.95-29-57.83-20.74-20.63-52.72-26.15-80.49-19.39-27.13,6.43-46.36,26.56-56.48,51.93a165.25,165.25,0,0,0-7.59,25.91c-5.93,28.63-7.6,58.14-8.27,87.39-.56,40.83.16,91.95-.07,133-.08,73.95-.65,148-1.11,221.9.16,30.32,1.45,60.78,6.49,90.67,2.48,13.35,5.7,26.92,11.4,39.27a2.08,2.08,0,0,1-3.74,1.83c-6-11.76-9.63-24.52-12.44-37.32-6.65-31-8.48-62.75-9.36-94.33-1.4-103-1.42-207.67-1.3-310.8,0-29.65.29-59.5,3.17-89.12,2.48-24.16,6-48.83,15.26-71.56,8.23-19.38,22.11-37.06,41.06-46.87,20.4-10.65,44.67-12.4,66.85-7.16,40.05,9.75,60.66,43.57,68.53,81.78,9.17,43.67,9.65,88.52,10.42,132.92,1.07,59.19,1.94,118.37,1.67,177.57-.08,22.06-.23,66.71-.45,88.78-.38,46.16-.4,93.19-10.34,138.62-2.9,12.67-6.68,25.39-12.7,37a.91.91,0,0,1-1.63-.79Z" transform="translate(-98.31 -66.34)"/><path class="cls-1" d="M296.68,963.91c-143.14-42.5-146.77-288.47-147.91-411.72,1-104.36,7.28-229.2,52.55-324.29,34.75-70.1,82.18-95.08,157.6-106.11C424.51,113.43,493,114,556.18,135.5a153.53,153.53,0,0,1,56.73,36.05c72.36,73.24,83.66,215.84,88,314.47,2.51,120.85,2.58,281.64-51.19,391-19.86,40.09-52.56,74.16-96.27,87.22a1.33,1.33,0,0,1-.84-2.53,145.71,145.71,0,0,0,42.75-23.3C649.64,895.21,669.52,814.6,680,748.85c6.57-43.29,9.56-87.11,11-130.88,2.26-87.46,1-175.73-12.1-262.31-13.37-81.73-40-180.64-125.46-212.83-74.14-28.24-218.82-30.89-287,12.29-95.11,61-104.44,228.13-108.26,331.25-2,87.56-1.24,175.74,11.62,262.52,5,32.35,12.1,64.5,23.13,95.36,13.53,38.13,34.44,75.44,68.07,99.17A149.86,149.86,0,0,0,297.33,962a1,1,0,0,1-.65,1.93Z" transform="translate(-98.31 -66.34)"/><path class="cls-1" d="M435.36,955.15c3-.4,6.46-1.26,9.68-1.53l1.83-.32c2.2-.4,5.16-.9,7.32-1.32,3.54-.85,7.35-1.72,10.79-2.81,34.14-10.2,60.88-33,78.23-63.92,8.35-15.11,14-31.62,17.84-48.42,8.12-36.35,9.8-73.74,10.27-110.89-.05-86.4-1-212.05-1-298.88-.12-44,.25-90.08-6.39-133.6-6.28-42-19.47-80.71-52.32-109.36-.86-.84-1.85-1.53-2.78-2.3L506,179.57c-.95-.73-1.86-1.54-2.86-2.21l-3-2a121.94,121.94,0,0,0-18.83-10.64C446,149,403.92,148.9,368.63,164.52l-6.52,3.14c-2.13,1.12-4.19,2.38-6.29,3.56-3,1.71-6.22,4-9.09,5.92-2.77,2.09-5.9,4.46-8.53,6.72l-5.37,4.87a139.87,139.87,0,0,0-26.07,34.72C292.71,249.38,287,279,283.36,308c-7.78,68.3-4,168.89-5.47,238.59-.07,41.54-.76,139.08-.51,179.34.69,39.65,2.54,79.73,12.68,118.24s32.44,73.36,68,92.82c17.17,9.55,36.69,14.77,56.25,16.08a2,2,0,0,1,1.88,2.16,2,2,0,0,1-2.06,1.89,447.62,447.62,0,0,1-68.52-5.66c-48.28-8.26-81.09-20.84-109.73-62.75C170.57,790.32,172,594.44,175.35,477c4-84.49,13.33-195,61.14-266.47,18.59-27.51,45-47.36,77.08-56.41A297.36,297.36,0,0,1,356,144.56c60.26-8.56,130.82-7.34,188.73,12.34,34.35,11.6,60.7,37.28,78,68.6,39.86,73.95,47.63,168.76,51.62,251.54,2.68,80,1.6,160.28-8.08,239.81-9.55,71.23-29.56,174.24-96.68,212.84a134,134,0,0,1-32,13c-22,6.27-44.79,9.73-67.6,11.47-11.53.74-23.16,1.76-34.7,1Zm.92,0c11.19-1.26,22.45-1.25,33.65-2.52,28.17-2.84,56.56-7.66,83-18.1C577.8,924.31,598,905,612,882.26c60.28-97.45,58-290.3,53.88-404.85-4.32-82.07-14.11-192-60.62-261.14-19-27.62-43.5-44.82-75.87-53.48-62.46-17.38-150.65-17.44-212.77,1.25-18.49,5.36-35.88,14.37-50.15,27.38-40.63,37.24-57.12,98.09-67.66,150.62-12.42,67-15.53,135.52-16.08,203.61.18,90.57,2.43,182.78,27.68,270.32,12.83,42.21,32.88,86.45,72.25,109.81,19.43,11.49,41.82,16.6,63.8,20.81a454.81,454.81,0,0,0,67.73,6.52s-.18,4-.16,4c-30.61-2.47-59.3-14.12-82-34.92-34.59-31.36-47.56-76.62-53-121.51-5.54-44.13-4.87-90.05-5-134.52-.08-80.56-1.11-203.78-1.26-284,.2-24.84,1-50.2,3.79-74.94,2.24-20,5.58-40,11.68-59.26,11.5-36.85,35.52-69.54,70.06-87.68C403.78,136.7,462.51,139,505,168.12a110.14,110.14,0,0,1,9.29,6.91c1.56,1.09,7.07,6.18,8.68,7.66,1.41,1.36,4,4.05,5.36,5.55a73.58,73.58,0,0,1,5.07,5.8c23.3,27.49,33.78,63.1,38.9,98.14,5.08,34.58,6.09,70.1,6.09,105C578,496.23,578,627.16,577,726c-.83,35-2.85,70.15-10.09,104.45-9.67,47.62-35.08,91.08-80.34,112.37a132.55,132.55,0,0,1-28.44,9.61c-4.05,1-8.82,1.63-12.93,2.28-3,.36-5.71.18-8.91.37Z" transform="translate(-98.31 -66.34)"/></g></svg>