<svg id="Layer_2" data-name="Layer 2" xmlns="http://www.w3.org/2000/svg" viewBox="0 0 1080 1080"><defs><style>.cls-1{fill:#fff;}</style></defs><g id="_1" data-name="1"><path class="cls-1" d="M327.17,215c39.35-.91,79.14-3.33,117.38-13.11,18.92-5,37.34-12,53.95-22.34,28-17,47.15-44.71,59.51-74.55a316,316,0,0,0,12.93-36.89,3.78,3.78,0,0,1,3.61-2.74c44.39-.07,133.88-.63,178.28-.58a4.36,4.36,0,0,1,4.37,4.37c-.08,235.45-4.79,470.88-2.11,706.33.59,78.48,1.4,157,1.83,235.45a4.06,4.06,0,0,1-4.09,4.08l-247.41.9a5,5,0,0,1-5-5c-.11-40.18-.26-120.19-.23-160.29.24-149.25,1-332.5,2.5-480.86l2.72,2.71L460.85,372c-39.67-.48-94-1.16-133.68-1.78a.49.49,0,0,1,0-1c55.86-.85,122.39-1.69,178.25-2.23a2.7,2.7,0,0,1,2.71,2.72c1.71,177.46,2.63,383.17,2.47,561l-.2,80.15-5-5,247.41.9-4.09,4.09c.43-78.48,1.24-157,1.83-235.45,2.68-235.45-2-470.88-2.11-706.33l4.37,4.37-89.12-.2-89.13-.37,3.65-2.74c-7.6,25.6-17.86,50.64-33,72.83-15.1,22.39-37,39.82-61.69,50.49-24.41,10.89-50.8,16.28-77.17,19.26s-52.81,3.62-79.21,3.17a.49.49,0,0,1,0-1Z"/><path class="cls-1" d="M377.33,263.63c36.26-3.16,72.7-8.62,106.86-21.54,22.54-8.42,44-20.13,62.37-35.75,27.79-23.28,46.81-55.1,60.14-88.49a3.85,3.85,0,0,1,3.59-2.42l46.17-.25,46.17-.12a4.24,4.24,0,0,1,4.25,4.25c-.18,276.25-5.18,564.37-.39,841.38a3.83,3.83,0,0,1-3.86,3.86c-36.67,0-110.36.8-147,.76a4.59,4.59,0,0,1-4.61-4.58s-.56-160.32-.56-160.33c-.24-158.81.6-321.82,2.21-480.86l3,3C499.77,321.91,433.2,321,377.37,320a.49.49,0,0,1,0-1c39.72-.67,94-1.48,133.68-2l44.56-.51a2.92,2.92,0,0,1,3,2.89c0,.07.76,80.15.76,80.21,1.62,182.41,1.82,378,.9,561l-4.62-4.62c36.62-.1,110.41.68,147,.76l-3.85,3.86C699.63,836,702,662.77,701,540c-.83-140.23-3.5-280.46-2.59-420.69l4.24,4.25-46.17-.12-46.17-.25,3.59-2.42c-14,34.16-34.33,66.83-63.38,90.3-48.32,39.48-112.44,51-173.1,53.53a.49.49,0,0,1-.51-.46.48.48,0,0,1,.44-.51Z"/><path class="cls-1" d="M402.41,286.75c46-5.62,92.11-16.9,132.09-41a210.85,210.85,0,0,0,52.36-44.52c14.86-17.54,26.66-37.54,36.31-58.49a3.88,3.88,0,0,1,3.55-2.27c16.94-.09,33.88-.22,50.82-.25a4.17,4.17,0,0,1,4.17,4.17c.23,65.93.35,131.87-.28,197.8q-4.5,296.7-.18,593.39a3.68,3.68,0,0,1-3.65,3.71c-.06,0-48.41.38-48.48.38l-48.41.27a4.33,4.33,0,0,1-4.36-4.36c-.2-57.55-.87-185-.83-240.43-.12-131.37.71-269.48,2.1-400.72l3.09,3.1c-22.2-.18-66.93-.86-89.12-1.13s-67-1.11-89.13-1.48a.49.49,0,0,1-.48-.5.48.48,0,0,1,.48-.47c39.72-.72,94-1.61,133.69-2.09l44.56-.52a3.05,3.05,0,0,1,3.09,3c1.67,158.67,2.52,322.25,1.92,480.94l-.65,160.28-4.36-4.36c24.11-.1,72.72.59,96.83.65l-3.71,3.71q4.11-296.69-.19-593.39c-.62-65.93-.5-131.86-.28-197.79l4.18,4.17c-16.94,0-33.88-.15-50.82-.25l3.56-2.26c-21.45,46.45-54.9,85.17-100.77,108.68-28.73,14.95-60.23,24-92.13,29-11.57,1.81-23.22,3-34.87,4a.47.47,0,0,1-.52-.44.49.49,0,0,1,.42-.52Z"/></g></svg>