<svg id="website_letter" data-name="website letter" xmlns="http://www.w3.org/2000/svg" viewBox="0 0 432.23 951.14"><defs><style>.cls-1{fill:#fff;}</style></defs><g id="_1" data-name="1"><path class="cls-1" d="M212.17,213.52c62.36-1.15,136.69-4.38,186.92-45.47,30.19-25.23,46.07-63,56.85-100a3.77,3.77,0,0,1,3.64-2.74c14.86-.22,29.71-.28,44.57-.43,39.67-.17,94-.34,133.68-.17a4.38,4.38,0,0,1,4.4,4.38s-.62,117.73-.61,117.74c-3.26,274.14-2.41,550.07.3,824.05a4.07,4.07,0,0,1-4,4.08s-123.71.47-123.75.48l-123.7.34a4.9,4.9,0,0,1-4.9-4.9c-.13-149.38-.32-332.39.71-480.85.47-47.39.7-113.63,1.47-160.3l2.72,2.71-178.25-.54a2.18,2.18,0,0,1,0-4.35L390.42,367a2.71,2.71,0,0,1,2.71,2.67c.56,46.45,1.23,113.24,1.47,160.35.95,148.2.93,331.87.72,480.85l-4.9-4.9c61.64-.14,185.78.73,247.41.81l-4.09,4.09c2.73-273.94,3.54-549.95.3-824l-.61-117.73,4.4,4.4c-39.72.19-94,0-133.68-.18-14.86-.14-29.71-.21-44.57-.42l3.65-2.74a319.37,319.37,0,0,1-13.67,37.64c-16.69,38.69-41.65,68.91-80.92,85.91-49.19,21.51-103.72,23.36-156.47,23.63a1.92,1.92,0,0,1,0-3.83Z" transform="translate(-210 -64.65)"/><path class="cls-1" d="M262.23,262c71-4.46,148.46-22.79,194.25-81.5a208,208,0,0,0,19.84-30,291.23,291.23,0,0,0,15.37-32.67,3.85,3.85,0,0,1,3.6-2.44c29.91-.24,62.54-.7,92.34-.59a4.46,4.46,0,0,1,4.48,4.46s-.09,52.59-.09,52.6c-2.39,257.58-4.25,530.5-.53,788.79a3.83,3.83,0,0,1-3.86,3.86c-36.66,0-110.37.8-147,.73a4.58,4.58,0,0,1-4.59-4.59c-.3-80.07-.52-240.56-.37-320.56.12-106.87.49-213.73,2-320.59l3,3-178.24-1.07a1.89,1.89,0,1,1,0-3.78l178.24-1.07a2.94,2.94,0,0,1,3,3c2.22,154.41,2,325.56,2.06,480.85l-.43,160.28-4.59-4.59c36.63-.13,110.4.65,147,.73l-3.85,3.86,1.88-210.34c1.77-191.53-1.36-386.73-2.41-578.45l-.09-52.59,4.47,4.47c-22.18-.15-46.93,0-69.25-.33l-23.09-.26,3.6-2.42c-14.09,34.26-34.3,66.84-63.31,90.41-48.29,39.72-112.29,51.58-173.08,55a2.11,2.11,0,0,1-.27-4.21Z" transform="translate(-210 -64.65)"/><path class="cls-1" d="M287.29,285.54c68.37-6.87,139.5-29.82,184.62-84.24,14.92-17.51,26.65-37.58,36.26-58.55a3.86,3.86,0,0,1,3.44-2.27c8.51-.14,17-.21,25.52-.3s16.94-.1,25.41-.15a4.35,4.35,0,0,1,4.37,4.33c-.59,263.75-5.33,527.48-.66,791.23a3.68,3.68,0,0,1-3.71,3.71l-48.42.38-48.41.27a4.32,4.32,0,0,1-4.36-4.31c-.2-54.24-.66-188.3-.66-240.47,0-119.25,0-241.64,1.38-360.64,0,0,.55-40.07.55-40.09l3.09,3.1-178.25-1.15a2,2,0,0,1,0-3.9l178.25-1.14a3.07,3.07,0,0,1,3.09,3.11c.33,22.91.81,57.55,1,80.15,1.55,181.61,1,378.64.31,561l-4.36-4.36c24.12-.11,72.71.59,96.83.65l-3.71,3.71c.6-65.93,1.44-131.86,1.89-197.79,1.85-197.81-3-395.59-2.56-593.39l4.38,4.38q-25.41-.09-50.82-.46l3.56-2.26c-31.91,69-85.21,111.73-158.33,131-22.69,6.1-46,9.66-69.31,11.84a1.7,1.7,0,0,1-.35-3.38Z" transform="translate(-210 -64.65)"/></g></svg>