<svg id="Layer_2" data-name="Layer 2" xmlns="http://www.w3.org/2000/svg" viewBox="0 0 1080 1080"><defs><style>.cls-1{fill:#fff;}</style></defs><g id="c"><path class="cls-1" d="M641.85,445.16c-.66-46.57-1-94.73-17.74-138.78-9-23.21-26.57-37.94-51.26-42-22.55-3.63-48.21-.45-65,16.29-8.13,8.34-13.54,18.88-17.63,29.71-11.86,33.12-15.11,68.6-17.71,103.51-4.29,70.27-4,140.82-2,211.17,2.49,47.64,3.76,152.82,42.8,182.68,22.22,16.83,57.32,16.7,81.27,3.58,14.92-8.38,26.25-22.5,32.24-38.51,6.23-16.26,9.08-33.58,10.87-50.9,3.39-33.56,1.64-71.45,2-105.38a2.6,2.6,0,0,1,2.6-2.61l269.55-.39a3,3,0,0,1,3,3c-.86,135.36-15,297.38-155.09,360.23-96.53,45-223,43.53-326.93,29.61-27.43-4.2-55.08-9.31-80.93-19.86-52.57-20.76-95.83-59.93-124-108.72-42.38-72.46-57.3-156.86-62.42-239.6-4.1-69-3.34-138.23,3.47-207,4.15-39.56,10.73-79.17,21.9-117.41C212.21,242.52,248,171.83,309.8,127.59A272.46,272.46,0,0,1,414.4,81C468.53,69.2,524,64.68,579.36,65.46c55.21,1,111.6,7.8,162.58,30.22,48.67,21.23,89.58,53.91,117.55,99.38,24.06,38.23,37,82.21,44,126.54,6.73,40.81,9.19,82.25,8.85,123.56a.49.49,0,0,1-1,0c-.46-51.51-5.11-103.12-16.83-153.33-37-158.46-161.89-219.38-315.3-218.91-54.71-.43-109.63,4.39-163,16.41A266.65,266.65,0,0,0,323.44,129c-65.6,44.09-100.81,113.61-123,187.55-10.89,37.7-17.24,76.68-21.34,115.67a1334.36,1334.36,0,0,0-3.67,205.34c6.79,106.38,29.17,223.6,111.11,298.54,30.27,27.12,67.67,45.75,107.28,54.64,98.53,20.93,228.52,24.86,324.94-5.6,41.87-13.42,82-35.28,111.9-67.82,53-59.6,68.42-141.36,75-218.56,2.28-27.33,3.16-54.78,3.25-82.23l3,3-269.55-.39,2.61-2.6c-.49,34.11,1.2,72-2.32,105.88-1.87,17.65-4.89,35.46-11.36,52.12-6.41,16.89-18.5,31.88-34.43,40.73-25.52,13.88-62.47,13.75-86-4.21-40.55-31.06-41.3-136.9-43.68-185.87-1.81-70.49-1.79-141.08,2.78-211.47,2.75-35.08,6.17-70.78,18.25-104.11,10.62-28.34,27.47-44.64,58.4-48,35.23-3,65.8,9.59,78.95,44.18,8.62,22,12.38,45.51,14.65,68.9s2.66,47,2.65,70.45a.48.48,0,0,1-.49.48.47.47,0,0,1-.48-.48Z"/><path class="cls-1" d="M702.7,382.4c-2.74-36.06-8.27-72.59-23-105.86-1.71-3.9-4.17-8.35-6.18-12.08l-1.42-2.31-2.84-4.62a124.73,124.73,0,0,0-39.57-38.29c-21.44-12.71-46.39-18.53-71.2-18.78-43.24-1.4-87.5,18.53-110.8,55.75C402.61,325,407.83,471.27,406.83,554.63c.62,58,1.39,116.38,9.32,173.88,4.24,28.44,10.36,57.1,23,83C477.66,897.2,601,906,659.72,837.16a132.59,132.59,0,0,0,15.5-21.67c22.92-41.18,25.94-89.93,26.68-136.18a3.22,3.22,0,0,1,3.21-3.19l142.11-.22a3.41,3.41,0,0,1,3.43,3.42c-1.37,22.22-3.56,44.42-7,66.47C836,794.53,821.48,844.62,787.71,882c-72,73.54-207.33,74.7-303.79,67.46-31.82-3-64-6.83-94.81-15.87A183.27,183.27,0,0,1,326,899.28c-26.23-21.66-45.08-51-58.81-81.78-36.42-82-40.82-173.65-41.33-262.12.87-88.5,5.91-179.48,39.06-262.57,26-66.15,66.17-117.38,134.89-142.11,5.12-1.83,10.83-3.64,16.11-5,59.39-14.75,121.12-18.78,182.13-16.28,66.16,2.77,136.05,19.45,183.73,68.3C813,229.85,830.27,273,838.38,316.53a572,572,0,0,1,8.65,65.8.49.49,0,0,1-1,.08c-5.58-54.29-14.85-110.77-46.31-156.64C775.35,189.15,736.34,164.38,695,151c-36.64-11.61-75.34-15.15-113.67-15.75-49.43-.43-99,3.66-147.39,14.13-31.92,6.47-62.37,20.08-87.76,40.55-34.56,27-56.78,66-72.68,106.29C249,357.5,241.15,423.85,237.6,489.37c-3.32,76.77-2.53,154.41,10.44,230.23,9.75,53.09,27.4,106.95,61.38,149.53A173.47,173.47,0,0,0,388,923.58,211.69,211.69,0,0,0,411.44,930c45.67,9.61,92.46,13.45,139.11,13.82,71.57.1,152.15-7,211.86-49.89,10.82-8,20.87-17.16,28.82-28,39.71-53.34,47.52-122.31,52.56-186.84l3.43,3.65-142.11-.23,3.2-3.18c-.15,14.61-.73,29.24-2,43.84-4.67,52.67-18.38,103.4-62.46,136.83l-4.53,3.24L637,864.87l-2.36,1.47-4.73,2.94-4.9,2.65-2.46,1.32L620,874.43,615,876.77l-5.18,2c-22.49,8.57-47.16,11.19-71,8.66-87.28-10.82-116.75-80-127.26-158.29-10.78-86.84-9.17-174.56-7.43-261.85,3.6-75.63,4.3-196.7,71.55-244.4,41.58-30.21,101-31.81,146.55-9.84a124.93,124.93,0,0,1,51.22,48.3c14,23.6,20.81,50.74,25.38,77.56,2.4,14.37,3.9,28.87,4.9,43.39a.49.49,0,1,1-1,.07Z"/><path class="cls-1" d="M731.2,351c-5.05-37.22-13.66-75-33.58-107.26-23-37.66-62.67-63.73-106-71.34-62-11.48-127,7.48-165,59.67-11.46,15.83-20,33.66-26.25,52.12-19.63,60-21.53,123.85-23.59,186.42-1.44,75.5-1.44,151.3,4.8,226.59,6.22,63.68,17.72,134.52,68.39,178.69a151.6,151.6,0,0,0,22.61,16c21.29,12.55,45.65,19.41,70.31,21a3.61,3.61,0,0,1-.28,7.22,726.26,726.26,0,0,1-92.08-6.75c-15.25-2.2-30.67-4.77-45.6-8.64a152.36,152.36,0,0,1-78.24-50c-64.64-81.45-69.4-211-69.31-311.22.42-46.13,2.85-92.44,9.79-138.09,9.32-63.39,34.37-144.79,82.67-189.07a179.54,179.54,0,0,1,82.62-42.9c37.65-8.31,76.19-12.48,114.66-13.47,115-2.94,226.05,17.56,256.56,145.56a450.31,450.31,0,0,1,8.16,45.28.49.49,0,0,1-1,.14c-6.82-44.73-19.32-91.12-50.87-125-54.36-56.51-138.81-61.24-212.66-58.77-38.05,1.44-76,5.85-113,14.42a178.07,178.07,0,0,0-21.48,6.45,168.56,168.56,0,0,0-85.09,69.5c-29.92,48.4-44.79,104.6-52.23,160.62-5.51,41.54-7.69,83.51-8.22,125.39-.26,98,3.13,225.94,65.79,305.85,24.76,30.3,57.76,46.41,96,52.63,37.43,7,75.48,10.12,113.59,10.82l-.3,7.22c-33.68-2.24-67-14.53-93.14-36.07-54.86-44.75-67.49-119.73-73.57-186.39-5.93-75.61-5.6-151.49-3.83-227.24,2.4-62.95,4.75-127.27,24.88-187.53a207.1,207.1,0,0,1,22.94-47.08c22-33.35,57.67-56.75,96.64-65.16,55.56-11.8,118.28,1.49,159.06,42.43,36.9,36,50.48,88.14,56.74,137.74a.49.49,0,0,1-.42.55.49.49,0,0,1-.54-.43Z"/><path class="cls-1" d="M569,916.59c10.64-1.81,21.48-3,31.87-5.92a164.22,164.22,0,0,0,91.67-62.87c28.91-39.43,37-89.45,39.66-137.27a3.29,3.29,0,0,1,3.3-3.11l77.52-.62a3.9,3.9,0,0,1,3.93,3.86c-1.47,15.36-3.55,30.69-6.33,45.93-6.38,35.95-17.8,72.62-41.73,101.13-5,6-11.39,11.23-17.48,16.12-45.58,33.5-104,41.86-159.09,43.27-3.28,0-8.51.23-11.84,0-3.94-.18-7.65-.56-11.48-.52Zm1,0c3.29-.17,8-.79,11.29-1.26,10.63-1,22.8-2.1,33.46-3.53,45.77-6.14,93.49-17.07,130.68-45.66,44.36-34.82,57.13-102.54,63.71-155.8l3.9,4.35L735.53,714l3.3-3.12c-3.92,61.67-18.85,124.87-68.27,166.26a164.8,164.8,0,0,1-69.24,35.18c-10.28,2.44-20.72,4.25-31.31,4.2Z"/></g></svg>