<?xml version="1.0" encoding="UTF-8" ?>
<!DOCTYPE svg PUBLIC "-//W3C//DTD SVG 1.1//EN" "http://www.w3.org/Graphics/SVG/1.1/DTD/svg11.dtd">
<svg width="313pt" height="307pt" viewBox="0 0 313 307" version="1.1" xmlns="http://www.w3.org/2000/svg">
<g id="#090919ff">
</g>
<g id="#f8fafcff">
<path fill="#f8fafc" opacity="1.00" d=" M 79.95 27.95 C 105.02 12.74 134.72 5.00 164.01 6.92 C 193.13 8.57 221.57 19.59 244.50 37.57 C 269.44 56.93 288.00 84.61 295.58 115.33 C 296.44 119.16 298.20 123.05 297.52 127.03 C 297.39 122.43 295.86 118.07 294.62 113.69 C 288.53 91.69 276.89 71.30 261.32 54.63 C 239.29 30.84 209.12 14.62 176.99 9.98 C 154.58 6.86 131.34 8.49 109.89 15.90 C 77.72 26.67 49.82 49.33 32.33 78.36 C 12.65 110.45 6.91 150.41 15.91 186.87 C 22.28 213.11 36.31 237.47 55.96 256.00 C 87.45 286.04 132.97 301.07 176.09 294.30 C 208.29 289.63 238.89 273.98 260.93 249.97 C 277.77 231.96 289.93 209.63 295.90 185.71 C 296.96 180.52 298.48 175.37 298.47 170.03 C 299.18 172.99 298.24 176.04 297.74 178.97 C 293.40 203.63 282.08 226.93 265.90 245.99 C 240.64 275.78 203.13 295.17 164.00 297.11 C 158.31 297.08 152.63 297.15 146.95 297.07 C 120.31 295.25 94.07 286.32 72.42 270.57 C 45.69 251.49 25.27 223.42 16.29 191.76 C 7.98 162.86 8.83 131.43 19.13 103.15 C 30.14 72.18 51.84 45.05 79.95 27.95 Z" />
<path fill="#f8fafc" opacity="1.00" d=" M 140.98 28.03 C 161.83 25.19 183.35 28.39 202.85 36.15 C 232.70 48.10 257.42 72.16 270.34 101.58 C 286.71 138.63 283.56 183.63 261.80 217.84 C 256.88 225.32 251.46 232.60 244.93 238.76 C 254.22 228.05 262.85 216.56 268.42 203.42 C 279.00 179.76 281.96 152.75 276.83 127.36 C 271.06 98.70 254.76 72.23 231.56 54.41 C 213.57 40.39 191.68 31.41 169.01 28.91 C 127.40 23.62 83.63 41.86 58.26 75.33 C 35.02 105.14 26.32 145.76 35.57 182.44 C 39.89 200.22 48.32 216.97 59.96 231.08 C 61.32 232.77 62.83 234.36 63.87 236.28 C 36.69 208.09 25.27 166.15 32.84 127.88 C 37.88 100.99 52.67 76.29 73.21 58.35 C 92.06 41.72 115.99 30.92 140.98 28.03 Z" />
<path fill="#f8fafc" opacity="1.00" d=" M 87.11 73.06 C 102.62 58.54 123.27 50.01 144.26 47.49 C 166.21 45.01 189.03 49.56 208.03 60.94 C 230.54 74.23 248.23 95.95 255.63 121.11 C 262.52 142.89 261.93 166.85 254.21 188.33 C 245.86 212.31 227.98 232.68 205.73 244.76 C 177.28 260.29 141.56 261.34 112.18 247.72 C 110.07 246.62 107.59 245.93 106.02 244.06 C 107.80 244.29 109.38 245.21 111.00 245.94 C 138.94 258.93 172.66 259.13 200.40 245.47 C 223.63 234.56 242.21 214.51 251.80 190.75 C 260.72 169.91 262.02 146.03 256.07 124.20 C 250.13 103.98 238.46 85.28 222.02 71.96 C 203.28 56.73 179.16 48.13 154.99 48.49 C 134.72 48.25 114.58 54.54 97.64 65.58 C 93.94 67.81 90.74 70.74 87.11 73.06 Z" />
<path fill="#f8fafc" opacity="1.00" d=" M 145.33 77.31 C 163.87 74.80 183.32 79.56 198.56 90.43 C 213.73 101.03 224.69 117.45 228.66 135.53 C 231.78 149.25 230.91 163.85 226.20 177.11 C 220.82 192.68 210.04 206.28 196.24 215.25 C 181.26 225.12 162.69 229.16 144.94 226.75 C 127.03 224.41 110.17 215.26 98.35 201.61 C 88.68 190.65 82.39 176.76 80.48 162.27 C 77.53 141.92 83.58 120.49 96.60 104.59 C 108.52 89.68 126.39 79.69 145.33 77.31 M 144.43 80.57 C 131.57 82.46 119.26 87.96 109.25 96.25 C 94.83 107.94 85.35 125.49 83.34 143.94 C 81.44 160.18 85.34 177.05 94.17 190.82 C 103.69 205.91 119.04 217.22 136.29 221.82 C 152.07 226.06 169.32 224.83 184.26 218.18 C 200.59 211.04 214.02 197.57 221.20 181.26 C 227.83 166.49 229.17 149.45 225.04 133.81 C 220.49 116.09 208.87 100.31 193.30 90.69 C 178.89 81.68 161.24 77.96 144.43 80.57 Z" />
<path fill="#f8fafc" opacity="1.00" d=" M 83.91 228.21 C 88.21 230.75 91.55 234.63 95.84 237.23 C 99.03 239.80 103.11 241.18 106.02 244.06 C 104.19 243.82 102.66 242.72 101.14 241.79 C 94.99 237.82 89.13 233.35 83.91 228.21 Z" />
</g>
</svg>
