<svg id="website_letter" data-name="website letter" xmlns="http://www.w3.org/2000/svg" viewBox="0 0 750.85 949.18"><defs><style>.cls-1{fill:#fff;}</style></defs><g id="c"><path class="cls-1" d="M525.53,445.16c.32-45.18-.71-115.28-25.27-153.68-16.46-24.93-49.18-31-76.85-25.48-25.34,5.63-38.19,21.36-46.86,44.89-11.64,33-14.73,68.35-17.18,103.14-4.52,93.44-4.6,187.73,3.08,281,3.83,33.75,9.73,88.88,37.37,110.83,21.38,16.31,55.61,16.23,78.77,3.62,14.51-8.09,25.63-21.75,31.55-37.35,6.25-16.06,9.15-33.18,11-50.37,3.59-33.48,2.1-71.38,2.67-105.26a3.5,3.5,0,0,1,3.51-3.48l269.58,1.54a2,2,0,0,1,2,2C797.13,751.34,783.3,912.31,644,975.15c-96.13,45-222.35,44-326.06,30.51-27.41-4.1-55-9.07-80.88-19.55-52.73-20.7-95.74-59.53-124-108.39C70.69,805.3,55.8,720.89,50.56,638.19c-4.11-69-3.4-138.24,3.31-207C58,391.59,64.53,352,75.65,313.69,96.44,244,130.83,174.8,190.29,130.33a272.18,272.18,0,0,1,109-49.89C353.44,68.55,409,63.94,464.37,64.72c151.49.91,277.36,59.66,317,216C794.49,334.44,799,390,798.61,445.16a1.73,1.73,0,0,1-3.45,0c-.33-41.18-3.34-82.35-10.51-122.89C756.16,146.1,634.7,73.88,464.26,73.65,409.61,73.24,354.73,78,301.38,89.92a264,264,0,0,0-104.93,48.45C138.88,181.59,106,249.05,85.71,316.64c-10.94,37.67-17.35,76.63-21.45,115.6a1321.78,1321.78,0,0,0-3.84,205.33c6.64,106.44,29.09,223.65,111,298.71,30.25,27.24,67.66,46,107.31,55,108.16,23.25,262.39,28.17,363.8-19.42,27.8-13,53.71-30.67,74.55-53.29,53.25-59.9,68.77-142.12,75-219.7,2.15-27.39,2.9-54.88,2.86-82.35l2,2-269.55,1.53,3.52-3.51c-.26,34.17,1.68,72.07-1.64,106-1.8,17.78-4.76,35.78-11.22,52.64-6.45,17.3-18.87,32.82-35.12,41.91-26.3,14.39-64.14,14.29-88.5-4.17-41.66-31.7-42.36-137.8-44.72-187.69-1.73-70.58-1.44-141.21,3.42-211.67,2.91-35.2,6.48-71,18.77-104.5,10.9-28.7,28.21-45.31,59.62-48.59,20.75-1.7,43.17,1.95,59.56,15.62,18.85,15.69,25.1,40.6,30,63.49,6.69,34.75,7.45,70.28,8.13,105.54a1.8,1.8,0,1,1-3.6,0Z" transform="translate(-48.01 -64.64)"/><path class="cls-1" d="M586.38,382.5c-3-35.86-8.7-72.16-23.51-105.15-1.69-3.84-4.14-8.2-6.13-11.88l-1.41-2.27-2.82-4.53a121.47,121.47,0,0,0-47.19-41.89c-19.2-9.35-40.53-13.63-61.88-13.81C401,201.75,357.78,221.15,335,257.7c-15.48,24-23.34,52.18-28.58,80.16-5.26,28.41-7.67,57.3-9.29,86.16-3.69,72.45-3.53,145.2-1,217.69,3.43,64.44,6.33,155.6,53.1,204.15,37.56,39,99.82,46.14,148.69,26,1.63-.78,5.71-2.59,7.3-3.34,1.24-.71,5.72-3,7.09-3.78l4.56-2.81c2.52-1.42,6.41-4.38,8.84-6,2.45-2,6-4.68,8.27-6.83,47.76-41.84,53.6-110,54.59-169.73a1.57,1.57,0,0,1,1.59-1.56l71,.07,71.06-.06a1.56,1.56,0,0,1,1.57,1.56q-1,16.63-2.75,33.21c-4.79,44-12.28,88.67-32.45,128.53a182.48,182.48,0,0,1-27,39.87A165.24,165.24,0,0,1,651.13,899c-60.76,44.32-142.5,52.36-215.63,52.82-50-.17-100.27-3.88-149.12-15a190.76,190.76,0,0,1-47.31-18.36c-40.23-21.91-68.67-59.59-86.81-100.95-36.49-82-40.93-173.64-41.54-262.1.76-88.54,5.67-179.57,38.76-262.75,16.48-41.53,40.08-82.15,76-109.84C252,161.65,283.92,147.56,317.11,141c43.59-9.16,88.15-13.12,132.63-13.33,55.41,0,113,5,163.27,30.14,65.55,31.78,98.62,88.55,111.78,158.4a568.83,568.83,0,0,1,8.79,66,2,2,0,0,1-4.07.34c-3.2-32.79-8.1-65.65-17.78-97.15-17.19-54.58-49.61-96.34-101.86-121.18-59.15-28.69-128.49-29.84-193-27-38.25,2.23-76.55,7.07-113.65,16.69-1.93.52-5.85,1.69-7.76,2.33-82.67,26.7-122.53,92-147.46,171C125.76,401,121.75,478.83,121.13,555.4c.76,97.54,5.16,200.61,54.75,287.16,21.41,37.52,55.89,67.5,97.08,81.16a209.2,209.2,0,0,0,23.45,6.47,631.42,631.42,0,0,0,73.24,10.86c90.36,7.23,211,7.7,285.06-51a148,148,0,0,0,15-13.77c17.22-19.48,29.61-42.85,38.23-67.31,14.28-41.65,19.67-86,22.73-129.78l1.57,1.67c-35.51-.11-106.64,0-142.11,0l1.58-1.57c-.1,14.58-.67,29.16-1.89,43.72-3.64,45.19-15,93.06-48.78,125.58-1,1-5,4.6-6.1,5.65l-2.14,1.77-4.3,3.51L524,862.83l-2.26,1.62-2.34,1.48-4.7,3c-2.61,1.38-7.07,4-9.81,5.2-37.45,18.23-86.11,19.62-124.12,2.18C322.34,850.4,303,787.89,294.65,729.43c-11.33-86.95-9.83-174.74-8.23-262.19,2.86-67.31,4.71-156.19,41.77-214,24.33-38.42,70.56-59.23,115.36-57.4,22.24.39,44.68,5.13,64.66,15.12a127,127,0,0,1,51.94,49.33c20.68,35.51,27.19,81.43,29.84,121.92a1.81,1.81,0,0,1-3.61.26Z" transform="translate(-48.01 -64.64)"/><path class="cls-1" d="M615,351.18c-5.44-37-14.22-74.35-34.17-106.31-22.9-37-62-62.48-104.71-69.89-61-11.13-124.9,7.38-162.33,58.7-.68,1-3.19,4.54-3.95,5.66-.94,1.54-2.83,4.4-3.71,5.83-.63,1-2.79,4.83-3.48,6-23.83,44.09-30.62,94.82-35.12,144.2-5.87,75.26-6.42,151-5.3,226.49,2.86,85.72,4.12,205.24,78.85,261.34,24.83,19.06,55.57,29.67,86.71,31.58a1.85,1.85,0,0,1-.16,3.69c-44.11-.52-88.5-4-131.73-13.28C228.25,889.56,193,840.17,171,777.75c-16.27-45.54-22.5-94-26-142a1276.29,1276.29,0,0,1-1.41-138.31c3.84-84.33,15.37-172.15,60.91-245.1a177.6,177.6,0,0,1,90.23-72.86,187.78,187.78,0,0,1,22.63-6.61c37.68-8.4,76.27-12.63,114.77-13.66,61.21-1.24,126.42,1.79,180.28,34,57.94,33.51,78.11,94.49,85.92,157.42a1.95,1.95,0,0,1-3.86.55c-12.24-83.33-41.87-143.39-126.81-170.12-29-8.89-59.37-12-89.61-13.16a678.4,678.4,0,0,0-91.15,3.33,557.73,557.73,0,0,0-67.39,11,176.2,176.2,0,0,0-21.41,6.39c-53.47,20.11-83.88,57.82-105.72,109.15-33.16,77.23-38.37,162.75-40,245.8-.26,86,2.09,177.88,36.71,257.78,21.23,49.28,54.67,85.23,108.16,98.34,42.75,9.91,86.63,14,130.49,15l-.15,3.69c-35-2.37-69.25-15.75-95.77-38.8-51.53-45.12-63.61-117.17-70.22-182-2.39-25.18-3.76-50.42-4.78-75.67-2.53-75.81-3.36-151.56,2-227.37,3.11-38,8.18-76.2,20.54-112.49a210.23,210.23,0,0,1,23.14-47.72c26.15-39.72,70.33-64.68,117.37-69.43,51.06-5.35,105.58,9.4,142.14,46.55,27.8,27.27,42.56,64.28,50.34,101.67,2.61,12.43,4.55,25,6,37.54a1.68,1.68,0,0,1-3.33.42Z" transform="translate(-48.01 -64.64)"/><path class="cls-1" d="M452.73,916.68c3.39-1.06,7.46-2.84,11.2-3.16l3.9-.74c42.71-7.46,82.21-31.34,107.78-66.44,28.9-38.58,40.53-88,43.42-135.7a1.52,1.52,0,0,1,1.5-1.42l19.38-.09c17.25-.12,40.89-.71,58.14-1.23a2.77,2.77,0,0,1,2.81,3.13c-1.23,15.2-2.87,30.41-5.47,45.51-6.89,40.32-21.74,86.75-54.18,113.81l-4.56,3.76c-2.59,2-6.88,4.86-9.61,6.82-3,1.79-7.07,4.35-10.07,6s-7.37,3.94-10.41,5.35c-26.14,12.31-54.89,18.9-83.45,22.49a453.07,453.07,0,0,1-45.69,3.41,119.35,119.35,0,0,1-12.41,0c-4.24-.27-8.26-1.27-12.28-1.58Zm3.57-.17c5.35-.66,9.86-2.79,15.18-2.88,8.69-.71,19.47-1.67,28.19-2.78,29.77-3.71,59.37-9.7,87.24-20.88,3.06-1.2,7.32-3,10.22-4.4s7.21-3.32,9.94-4.9,6.94-3.72,9.59-5.48l4.69-2.91,4.46-3.2a109,109,0,0,0,8.65-6.73,88.2,88.2,0,0,0,15-15.5c20.52-26.52,31.07-59.31,37.9-91.86q4.73-22.07,7.85-44.57l2.81,3.13L678.67,713c-17.28-.43-40.86-.79-58.14-.77l1.5-1.42c-3,47.08-8.53,97.36-36.42,137.13-27,38.71-70,64.85-117.12,69.37l-2.3.26-1.15.13-.57.06c-2.83.18-5.16-1.14-8.17-1.25Z" transform="translate(-48.01 -64.64)"/></g></svg>