<svg id="website_letter" data-name="website letter" xmlns="http://www.w3.org/2000/svg" viewBox="0 0 850 1080"><defs><style>.cls-1{fill:#fff;}</style></defs><g id="c"><path class="cls-1" d="M526.53,445.16c-.73-46.51-1.11-94.62-17.92-138.58-9-23-26.37-37.57-50.87-41.55-29-4.61-59.77,2.31-74.51,29.93-31,55.76-27.35,192.39-27.94,259.71.41,46.85,1.36,93.86,5.84,140.49,3.93,34,10,89.47,38.06,111.51,21.75,16.44,56.31,16.26,79.73,3.39,14.6-8.23,25.67-22.07,31.54-37.8,6.15-16.12,8.95-33.28,10.71-50.5,3.34-33.5,1.55-71.34,1.86-105.22a4.3,4.3,0,0,1,4.28-4.31l269.57-.7a5,5,0,0,1,5,5c0,27.63-.75,55.3-2.94,82.9-6.32,79-22.3,162.87-76.47,224.06-60.51,65.63-153,87.31-239,92.48-62.33,3.3-125.1.5-186.64-10.39-51.75-8.45-98.19-28.55-137-64.37-19.61-17.86-36-39.17-49.45-62C53.68,781.74,45.35,665.75,44.85,555.34c.24-72.72,4.57-146.11,21.26-217.13a493.13,493.13,0,0,1,39.64-108.16c25.78-51.05,63.8-93.87,114.06-122a277.1,277.1,0,0,1,79-29.65C353.18,66.6,408.87,62.18,464.39,63.07c55.45,1.16,112.15,8.15,163.33,30.82,41.59,18.21,79.44,46.16,106.3,83,31.21,42.11,47.76,93.15,55.44,144.52,6.51,40.88,8.81,82.39,8.22,123.72a.8.8,0,0,1-.81.79.81.81,0,0,1-.79-.79c-2-80.05-10.13-168-51.27-238.26C669.66,79,516.34,66.18,382.47,79c-55,6-111.87,15-159.72,44.29a257.92,257.92,0,0,0-24.84,17c-57,43-89.42,110.07-109.42,177.17C77.68,355,71.41,393.76,67.32,432.56a1335,1335,0,0,0-3.66,204.8C70.27,743,92.2,859.49,173.39,934c31.15,28,70,46.72,110.93,55.26,97.05,19.69,223.9,23.56,318.7-6.38,41.5-13.27,81.25-34.9,110.92-67.08,52.71-59.22,68-140.47,74.6-217.2,2.3-27.26,3.21-54.65,3.33-82.06l5,5-269.55-.7,4.31-4.31c-.53,34.19,1.12,72.08-2.45,106-1.9,17.75-5,35.72-11.52,52.52-6.52,17.16-18.94,32.49-35.13,41.44-21.71,11.66-48.28,13.05-71.37,4.67a61.07,61.07,0,0,1-28.85-22.66c-19.22-28.87-23.6-69-27.3-102.79-6-70.39-5.53-141-4.23-211.6,1.46-47,2.95-94.3,12.1-140.63a221.93,221.93,0,0,1,9.54-34.21c10.75-28.57,27.83-45.06,59.07-48.38,35.51-3,66.33,9.82,79.52,44.67,16.65,44.4,16.71,92.77,17.11,139.55a.8.8,0,0,1-1.6,0Z"/><path class="cls-1" d="M587.39,382.42c-2.81-36-8.39-72.48-23.17-105.68-1.7-3.89-4.17-8.3-6.17-12l-1.42-2.3-2.84-4.6c-25-38.09-65.48-56.22-110.32-56.6-63.32-.91-109.3,34.49-128.27,94.36-17.68,55.35-19.36,114.19-21.37,171.87-1.34,58.06-1.08,116.27,1.39,174.28,2.12,43.34,5,86.87,15.84,128.9,10.62,41.92,32,80.39,72.95,98.66,33,15.27,74.32,15.39,108.1,2.45l4.89-1.94c1.6-.77,5.58-2.6,7.15-3.35,1.22-.71,5.57-3,6.92-3.78l6.68-4.2,6.4-4.6c1.38-1.18,4.78-3.85,6.11-5,1-.91,4.67-4.34,5.8-5.35a136.65,136.65,0,0,0,22.43-29.06c15.81-27.92,21.61-60.29,24.42-92,1.21-14.32,1.73-28.73,1.82-43.16a5.37,5.37,0,0,1,5.38-5.34l142.11-.33a5.69,5.69,0,0,1,5.71,5.68c-1.34,22.34-3.54,44.66-7,66.85-6.87,44.4-19.31,89.37-46.74,125.79A127.47,127.47,0,0,1,673,885.19,181,181,0,0,1,631.81,916c-59.72,32.42-129.55,38.84-196.33,39-50.2-.27-100.74-4.07-149.84-15.23a187.87,187.87,0,0,1-92.37-52.9c-63.54-69.29-79.39-174.16-84.14-264.77-3.55-88.92-1.83-178.92,17.73-266.11,13.4-54.25,34.56-109.2,72.16-151.56a211.17,211.17,0,0,1,53.74-42.12c19.87-11.06,41.76-18.55,64-22.94,43.71-9.09,88.39-12.83,133-12.85,55.57.22,113.18,5.49,163.48,30.92,65.2,31.95,98.29,89.24,110.85,159a565.2,565.2,0,0,1,8.28,65.91.8.8,0,0,1-1.59.13c-3.47-32.83-8.6-65.69-18.52-97.2-13.25-41.36-37.69-80.16-74.36-104.39-64.16-43.92-145.84-46-220.94-42.26-38.13,2.42-76.3,7.36-113.25,17.07-1.92.51-5.79,1.7-7.69,2.33C213.87,185,175.13,249.34,150.42,328c-21.93,73.46-25.7,151.07-26.21,227.37.7,86.81,4.54,176.33,39.79,256.82,17.22,39.46,43,74.5,81,95.63,18.48,10.55,39.18,17.09,60.06,21,87.5,16.31,207.37,20.51,291.33-10.59,22.57-8.45,44-20.21,62-36.32a106.05,106.05,0,0,0,13.49-14.3c41.59-53.1,49.49-123.35,54.69-188.66l5.7,6.07-142.11-.34,5.37-5.34c-.15,14.66-.75,29.35-2.08,44-3.85,42.13-13.69,86.59-42.78,119-2.4,2.81-5.19,5.56-7.77,8.2-1.11,1.09-5.1,4.63-6.26,5.71-2.29,1.9-4.49,3.61-6.59,5.33-2.46,1.68-6.69,4.9-9.32,6.4l-4.8,3c-1.68,1-5.83,3.11-7.46,4-2.35,1.13-5.48,2.5-7.69,3.55l-5.26,2.06c-3,1.31-7.58,2.55-10.68,3.62a161.16,161.16,0,0,1-61.22,5.06c-67.38-8.08-104.75-53.32-120.27-116.59-7.21-28.5-10.62-57.7-12.82-86.91-3.13-43.63-3.84-87.39-3.9-131.09.18-58.28.91-116.6,6.81-174.66,5.06-43.33,12.27-88.36,36.3-125.73,24-38,69.59-58.36,113.83-56.65,20.16.39,40.53,4.14,58.93,12.55A124.52,124.52,0,0,1,556,256.39c15.82,24.75,23.38,53.8,28.17,82.48,2.37,14.39,3.85,28.91,4.82,43.44a.8.8,0,0,1-1.59.11Z"/><path class="cls-1" d="M615.89,351.07c-5.14-37.17-13.81-74.82-33.77-107-23-37.42-62.52-63.31-105.66-70.81-61.6-11.3-126.24,7.59-163.86,59.52-11.36,15.75-19.75,33.47-26,51.85-19.47,59.85-21.24,123.6-23.2,186-1.31,75.42-1.17,151.2,5.19,226.38C275,761.54,286.89,834,340,877.1A145.73,145.73,0,0,0,358.77,890c21,12.33,45,19.07,69.32,20.66,7.48.59,7.45,11.73-.45,12-38.55-.5-77.31-3.44-115.36-10.38-40.88-6.5-75.82-23.45-102.61-55.7-65.23-81.88-70.47-212.06-70.5-313C139.58,497.28,142,450.81,149,405c9.51-64.25,34.84-145.9,83.9-190.73,31.46-28.62,65.39-41.38,106.85-47.84a648.7,648.7,0,0,1,138.67-8.19c30.94,1.57,62.13,5.39,91.71,15.09,29.58,9.88,57.68,25.91,78.71,49.26,20.64,23.37,33.42,52.79,40.53,82.85a439.6,439.6,0,0,1,7.82,45.41.8.8,0,0,1-1.58.23c-9.43-60.54-30.18-120.4-86.92-151.51-26.09-15.17-55.63-23.14-85.43-26.91-60.09-7.17-121.69-3.65-181.12,7-14.63,2.85-29.34,5.81-43.3,11.12a166.22,166.22,0,0,0-70.72,50.51,221.11,221.11,0,0,0-23.75,37.38c-20.39,40.24-32.46,84.27-39,128.84-8.91,60.12-10.56,121.17-9.67,181.88,1.87,67.73,6.52,137,31.83,200.46,19.54,50.24,51.34,90.33,105.16,105,44.11,10.95,89.64,14.7,135,15.76l-.5,12c-34.1-2.3-67.87-14.81-94.4-36.67-55.32-45.14-68.16-120.76-74.11-188-5.81-75.72-5.35-151.62-3.44-227.46,2.51-63.07,5-127.53,25.26-187.89a208.53,208.53,0,0,1,23.16-47.32c22.26-33.55,58.16-57.06,97.4-65.47,86.14-17.6,170.35,21.91,199.67,107.19,8.64,23.86,13.58,48.84,16.67,73.9a.8.8,0,0,1-.7.89.79.79,0,0,1-.89-.69Z"/><path class="cls-1" d="M453.72,916.61c3.09-.58,6.51-1.56,9.73-1.88,1.36-.18,3.21-.51,4.56-.74,43.23-6.68,83.36-31.21,108.5-67C605,807.63,612.59,758,615,710.4a5.47,5.47,0,0,1,5.51-5.2l77.52-.92a6.38,6.38,0,0,1,6.45,6.3,518.29,518.29,0,0,1-10.72,69.27c-7.77,33.25-23.36,70.8-50.72,92.7C597.67,909.28,534,918,477.41,918c-3.43,0-8.68.05-12.16-.33-4-.36-7.7-1.07-11.53-1.09Zm1.6-.07c5.63-.31,10.7-2.06,16.18-2.52,8.05-1,20.07-2.4,28.13-3.67,46.69-7.27,96.25-19.13,133-50.2a87.13,87.13,0,0,0,12.77-13.07c30.23-38.82,40.06-89.22,46.27-137.05l6.4,7.13-77.52-.91,5.52-5.21c-3.68,48.94-13.31,100.37-44.13,140a167.93,167.93,0,0,1-109,64.46l-4.56.6-2.29.29c-3.65.64-7,.09-10.71.14Z"/></g></svg>