<?xml version="1.0" encoding="UTF-8" ?>
<!DOCTYPE svg PUBLIC "-//W3C//DTD SVG 1.1//EN" "http://www.w3.org/Graphics/SVG/1.1/DTD/svg11.dtd">
<svg width="837pt" height="484pt" viewBox="0 0 837 484" version="1.1" xmlns="http://www.w3.org/2000/svg">
<g id="#050412ff">
</g>
<g id="#080717ff">
</g>
<g id="#fcfdffff">
<path fill="#fcfdff" opacity="1.00" d=" M 326.43 122.14 C 338.13 122.03 349.82 122.07 361.52 122.12 C 361.62 123.46 361.74 124.79 361.86 126.12 C 360.44 124.62 359.15 122.69 356.86 122.60 C 357.02 127.05 355.80 131.87 357.87 136.02 C 356.00 136.01 354.13 136.00 352.27 136.02 C 354.09 131.80 353.01 127.08 353.15 122.64 C 350.98 122.76 349.77 124.58 348.51 126.08 C 348.49 125.10 348.45 123.14 348.44 122.16 C 347.84 122.40 346.65 122.88 346.05 123.12 C 345.67 127.36 345.08 131.96 346.73 136.01 C 344.86 136.00 342.98 136.00 341.12 136.02 C 343.01 132.00 342.43 127.17 341.77 122.92 C 341.32 122.91 340.42 122.89 339.96 122.88 C 339.82 123.68 339.54 125.29 339.40 126.09 C 338.13 124.52 336.89 122.63 334.62 122.64 C 334.75 127.08 333.46 131.95 335.81 136.01 C 333.91 136.00 332.01 136.01 330.12 136.02 C 332.18 131.87 330.99 127.05 331.13 122.60 C 328.81 122.67 327.51 124.64 326.05 126.13 C 326.18 124.80 326.30 123.47 326.43 122.14 Z" />
<path fill="#fcfdff" opacity="1.00" d=" M 376.17 121.98 C 380.01 122.05 383.84 122.05 387.68 122.10 C 387.77 123.44 387.87 124.78 387.97 126.12 C 386.33 123.85 384.17 122.13 381.20 122.88 C 381.45 124.75 380.64 127.04 381.93 128.63 C 383.39 128.44 384.15 127.09 385.01 126.07 C 384.97 128.01 384.97 129.95 385.01 131.90 C 384.13 130.89 383.36 129.57 381.91 129.37 C 380.67 130.97 381.44 133.23 381.19 135.10 C 384.26 135.82 386.89 134.57 388.59 132.01 C 388.55 133.28 388.52 134.55 388.50 135.82 C 384.40 135.99 380.29 135.90 376.20 136.04 C 378.30 134.27 377.71 131.43 377.80 129.00 C 377.73 126.57 378.31 123.74 376.17 121.98 Z" />
</g>
<g id="#fdfeffff">
<path fill="#fdfeff" opacity="1.00" d=" M 363.19 121.99 C 365.09 122.00 366.99 121.99 368.90 121.98 C 366.76 126.04 368.06 130.82 367.80 135.21 C 370.91 135.84 373.62 134.69 375.01 131.81 C 375.00 133.20 375.00 134.59 375.00 135.99 C 371.05 135.91 367.11 135.97 363.17 136.02 C 365.19 133.05 364.42 129.34 364.50 125.98 C 364.60 124.51 363.79 123.25 363.19 121.99 Z" />
<path fill="#fdfeff" opacity="1.00" d=" M 659.56 180.33 C 671.26 180.18 682.97 180.31 694.68 180.27 C 694.75 181.84 694.83 183.41 694.93 184.98 C 693.75 183.08 692.71 180.66 690.08 180.74 C 690.15 185.15 689.38 189.73 690.73 194.03 C 688.91 194.01 687.10 194.01 685.29 194.03 C 687.69 190.19 686.01 185.40 686.56 181.14 C 685.98 181.10 684.82 181.03 684.24 180.99 C 683.28 182.28 682.36 183.60 681.44 184.92 C 681.56 183.39 681.67 181.86 681.76 180.33 C 679.85 180.40 678.87 181.31 678.82 183.05 C 678.76 186.71 678.18 190.58 679.74 194.03 C 677.93 194.01 676.13 194.01 674.33 194.02 C 676.18 190.03 675.76 185.27 674.98 181.08 C 674.37 180.90 673.15 180.54 672.55 180.36 C 672.59 181.90 672.66 183.44 672.76 184.99 C 671.49 183.20 670.47 180.57 667.83 180.80 C 667.94 185.19 667.01 189.81 668.67 194.02 C 666.88 194.00 665.10 194.00 663.33 194.02 C 664.98 189.80 664.06 185.16 664.17 180.75 C 661.57 180.63 660.58 183.16 659.31 184.93 C 659.40 183.39 659.48 181.86 659.56 180.33 Z" />
</g>
<g id="#fdfdffff">
<path fill="#fdfdff" opacity="1.00" d=" M 393.99 122.03 C 397.06 121.98 400.14 121.95 403.22 122.15 C 401.84 123.87 400.34 125.49 399.03 127.27 C 400.72 128.07 403.28 128.68 403.21 131.04 C 404.19 136.74 394.21 137.98 392.75 133.01 C 392.40 130.71 394.65 130.49 396.36 130.63 C 396.01 132.20 394.08 135.22 397.00 135.31 C 400.01 135.93 399.80 132.23 399.86 130.29 C 398.91 129.49 397.95 128.71 397.00 127.94 C 397.77 126.90 398.55 125.86 399.30 124.80 C 397.44 124.77 395.58 124.81 393.72 124.88 C 393.79 124.17 393.92 122.74 393.99 122.03 Z" />
<path fill="#fdfdff" opacity="1.00" d=" M 709.19 180.11 C 713.05 180.29 716.91 180.15 720.78 180.26 C 720.87 181.58 720.95 182.91 721.03 184.24 C 720.01 183.15 719.03 182.05 718.02 180.97 C 717.16 180.96 715.44 180.93 714.58 180.92 C 714.52 182.88 714.49 184.84 714.54 186.81 C 716.35 187.07 717.35 185.42 718.36 184.26 C 718.27 186.10 718.28 187.95 718.37 189.80 C 717.30 188.72 716.16 187.56 714.58 187.33 C 714.50 189.28 714.51 191.24 714.57 193.20 C 716.04 193.18 717.52 193.16 719.01 193.14 C 719.97 192.04 720.93 190.92 721.94 189.85 C 721.79 191.19 721.65 192.53 721.53 193.87 C 717.77 193.95 714.02 193.96 710.27 194.02 C 711.54 190.11 710.82 185.95 711.03 181.92 C 710.41 181.31 709.79 180.71 709.19 180.11 Z" />
</g>
<g id="#ffffffff">
<path fill="#ffffff" opacity="1.00" d=" M 306.70 172.68 C 311.67 164.27 322.69 160.01 331.99 163.12 C 338.13 164.86 343.02 169.52 345.94 175.09 C 348.47 182.51 347.14 190.66 342.79 197.11 C 343.73 197.85 344.68 198.59 345.67 199.28 C 387.15 225.89 428.73 252.37 470.18 279.03 C 470.76 278.36 471.34 277.69 471.94 277.02 C 472.68 276.17 473.45 275.33 474.26 274.53 C 480.88 268.53 490.47 265.83 499.21 267.89 C 505.68 269.22 511.54 273.00 515.63 278.16 C 515.97 278.69 516.64 279.77 516.98 280.30 C 517.48 281.19 517.97 282.09 518.46 282.99 C 523.75 282.24 528.77 280.34 533.90 278.95 C 561.92 270.97 589.86 262.73 617.91 254.85 C 617.81 254.27 617.61 253.10 617.51 252.51 C 617.30 251.36 617.13 250.20 616.98 249.04 C 615.12 235.08 624.05 220.98 637.10 216.02 C 648.51 211.29 661.93 213.81 671.62 221.22 C 675.96 225.45 679.46 230.48 681.61 236.17 C 683.06 242.70 683.35 249.66 680.88 255.99 C 677.58 265.24 669.74 272.61 660.43 275.60 C 653.49 278.02 645.94 277.46 638.89 275.92 C 631.58 272.91 624.83 268.03 620.93 261.01 C 620.65 260.49 620.10 259.45 619.83 258.92 C 619.55 258.35 618.98 257.21 618.70 256.64 C 605.63 259.96 592.76 264.05 579.77 267.67 C 559.67 273.49 539.52 279.14 519.45 285.06 C 520.47 289.62 521.19 294.39 520.04 299.00 C 517.93 309.11 509.26 317.19 499.22 319.19 C 493.52 320.71 487.62 319.48 482.09 317.89 C 476.60 315.01 471.53 310.94 468.73 305.30 C 465.49 299.25 465.06 291.87 467.17 285.38 C 467.77 283.70 468.44 282.04 469.07 280.37 C 427.46 253.85 385.94 227.19 344.37 200.60 C 343.33 200.04 342.30 199.31 341.09 199.24 C 338.43 200.43 336.09 202.24 333.35 203.26 C 329.58 204.76 325.45 204.77 321.46 204.68 C 318.94 203.76 316.40 202.85 314.05 201.55 C 313.04 201.00 312.04 200.42 311.04 199.86 C 277.88 231.78 244.83 263.84 211.87 295.96 C 212.77 297.65 213.68 299.33 214.51 301.05 C 214.71 301.47 215.10 302.31 215.29 302.73 C 215.80 308.04 214.76 313.90 210.54 317.55 C 205.92 322.15 198.89 322.81 192.84 321.18 C 187.48 318.46 183.31 313.31 182.90 307.16 C 183.01 305.82 183.13 304.49 183.27 303.16 C 183.12 301.83 182.40 301.07 181.10 300.89 C 152.87 292.46 124.66 283.97 96.43 275.51 C 92.31 274.35 88.28 272.78 84.06 272.05 C 81.66 273.61 80.14 276.30 77.46 277.49 C 75.00 278.54 72.26 278.32 69.65 278.44 C 66.22 276.62 62.80 273.88 62.31 269.76 C 61.15 263.02 68.24 257.05 74.73 258.44 C 78.20 258.89 80.81 261.41 82.85 264.07 C 83.30 265.94 83.63 267.85 83.97 269.76 C 110.61 278.01 137.39 285.82 164.08 293.90 C 170.89 295.85 177.60 298.19 184.50 299.83 C 185.28 298.52 186.06 297.23 186.93 295.99 C 191.97 290.68 200.37 289.20 206.88 292.59 C 208.14 293.26 209.37 294.00 210.60 294.73 C 231.19 274.27 252.30 254.36 272.98 234.00 C 285.42 222.41 297.22 210.13 309.76 198.65 C 308.99 197.47 308.21 196.29 307.43 195.12 C 306.71 194.03 306.00 192.92 305.36 191.78 C 303.02 185.64 303.14 178.34 306.70 172.68 Z" />
</g>
<g id="#3c3f4dff">
<path fill="#3c3f4d" opacity="1.00" d=" M 345.94 175.09 C 349.02 179.32 349.67 184.73 348.55 189.76 C 347.95 192.63 346.07 196.65 349.33 198.64 C 359.64 205.84 370.44 212.32 381.12 218.97 C 389.34 224.47 397.81 229.57 406.13 234.92 C 415.08 241.08 424.74 246.14 433.61 252.42 C 438.13 255.63 443.04 258.25 447.59 261.42 C 455.47 266.99 464.20 271.23 471.94 277.02 C 471.34 277.69 470.76 278.36 470.18 279.03 C 428.73 252.37 387.15 225.89 345.67 199.28 C 344.68 198.59 343.73 197.85 342.79 197.11 C 347.14 190.66 348.47 182.51 345.94 175.09 Z" />
</g>
<g id="#feffffff">
<path fill="#feffff" opacity="1.00" d=" M 696.37 180.11 C 698.51 180.24 700.67 180.23 702.83 180.13 C 702.20 180.72 701.58 181.31 700.96 181.91 C 701.02 185.68 700.96 189.45 701.03 193.22 C 703.88 193.59 706.61 192.94 708.27 190.40 C 708.20 191.30 708.07 193.08 708.01 193.97 C 704.13 193.88 700.25 193.97 696.38 194.04 C 698.18 189.78 698.13 184.39 696.37 180.11 Z" />
</g>
<g id="#fcfcffff">
<path fill="#fcfcff" opacity="1.00" d=" M 727.10 180.20 C 730.12 180.22 733.14 180.19 736.16 180.40 C 734.92 182.21 733.42 183.81 731.95 185.43 C 734.12 186.02 736.77 187.28 736.50 189.99 C 735.99 195.04 728.61 195.19 725.92 191.93 C 725.99 191.24 726.14 189.87 726.21 189.18 C 727.02 189.06 728.65 188.83 729.47 188.71 C 729.17 190.22 728.89 191.74 728.62 193.26 C 729.44 193.24 731.07 193.21 731.89 193.19 C 734.25 190.98 732.85 187.18 730.06 186.04 C 730.90 184.95 731.74 183.85 732.56 182.74 C 730.65 182.77 728.76 182.95 726.89 183.21 C 726.94 182.46 727.04 180.96 727.10 180.20 Z" />
</g>
<g id="#201f2eff">
<path fill="#201f2e" opacity="1.00" d=" M 349.33 198.64 C 346.07 196.65 347.95 192.63 348.55 189.76 C 348.73 191.43 348.97 193.09 349.21 194.76 C 356.93 199.76 364.54 204.93 372.50 209.55 C 379.62 214.49 387.01 219.02 394.32 223.68 C 420.82 240.85 447.46 257.81 474.26 274.53 C 473.45 275.33 472.68 276.17 471.94 277.02 C 464.20 271.23 455.47 266.99 447.59 261.42 C 443.04 258.25 438.13 255.63 433.61 252.42 C 424.74 246.14 415.08 241.08 406.13 234.92 C 397.81 229.57 389.34 224.47 381.12 218.97 C 370.44 212.32 359.64 205.84 349.33 198.64 Z" />
<path fill="#201f2e" opacity="1.00" d=" M 558.09 266.02 C 577.71 260.34 597.48 255.11 616.98 249.04 C 617.13 250.20 617.30 251.36 617.51 252.51 C 600.07 256.44 583.16 262.35 565.87 266.84 C 552.44 270.89 538.89 274.50 525.42 278.43 C 522.65 279.23 519.81 279.79 516.98 280.30 C 516.64 279.77 515.97 278.69 515.63 278.16 C 529.76 274.03 544.02 270.37 558.09 266.02 Z" />
</g>
<g id="#0b0a1cff">
</g>
<g id="#34343fff">
<path fill="#34343f" opacity="1.00" d=" M 307.43 195.12 C 308.21 196.29 308.99 197.47 309.76 198.65 C 297.22 210.13 285.42 222.41 272.98 234.00 C 252.30 254.36 231.19 274.27 210.60 294.73 C 209.37 294.00 208.14 293.26 206.88 292.59 C 209.03 291.20 211.17 289.75 213.04 287.99 C 221.76 279.72 229.97 270.93 238.77 262.75 C 245.06 257.40 250.69 251.35 256.67 245.67 C 269.81 232.48 283.59 219.93 296.63 206.63 C 300.20 202.76 305.42 200.27 307.43 195.12 Z" />
<path fill="#34343f" opacity="1.00" d=" M 579.77 267.67 C 592.76 264.05 605.63 259.96 618.70 256.64 C 618.98 257.21 619.55 258.35 619.83 258.92 C 589.24 267.55 558.72 276.42 528.18 285.23 C 526.31 285.87 524.21 286.28 522.73 287.68 C 521.72 292.14 522.49 296.75 522.31 301.28 C 521.43 304.94 519.58 308.33 517.30 311.31 C 509.44 321.80 493.11 325.49 482.09 317.89 C 487.62 319.48 493.52 320.71 499.22 319.19 C 509.26 317.19 517.93 309.11 520.04 299.00 C 521.19 294.39 520.47 289.62 519.45 285.06 C 539.52 279.14 559.67 273.49 579.77 267.67 Z" />
</g>
<g id="#2b2a38ff">
<path fill="#2b2a38" opacity="1.00" d=" M 333.35 203.26 C 336.09 202.24 338.43 200.43 341.09 199.24 C 342.30 199.31 343.33 200.04 344.37 200.60 C 385.94 227.19 427.46 253.85 469.07 280.37 C 468.44 282.04 467.77 283.70 467.17 285.38 C 459.72 281.05 452.62 276.16 445.27 271.67 C 411.71 249.85 377.85 228.51 344.34 206.61 C 337.45 200.94 328.20 210.86 321.46 204.68 C 325.45 204.77 329.58 204.76 333.35 203.26 Z" />
</g>
<g id="#33333eff">
<path fill="#33333e" opacity="1.00" d=" M 211.87 295.96 C 244.83 263.84 277.88 231.78 311.04 199.86 C 312.04 200.42 313.04 201.00 314.05 201.55 C 308.74 205.34 304.59 210.42 299.88 214.87 C 293.92 220.60 288.34 226.71 282.19 232.23 C 274.25 239.25 266.91 246.92 259.37 254.36 C 245.39 267.72 231.55 281.22 217.80 294.82 C 216.00 296.45 215.21 298.79 214.51 301.05 C 213.68 299.33 212.77 297.65 211.87 295.96 Z" />
</g>
<g id="#343945ff">
<path fill="#343945" opacity="1.00" d=" M 681.61 236.17 C 686.70 244.24 685.16 254.70 680.69 262.68 C 677.60 268.99 671.75 273.45 665.56 276.48 C 657.17 279.94 646.87 281.05 638.89 275.92 C 645.94 277.46 653.49 278.02 660.43 275.60 C 669.74 272.61 677.58 265.24 680.88 255.99 C 683.35 249.66 683.06 242.70 681.61 236.17 Z" />
</g>
<g id="#33333fff">
<path fill="#33333f" opacity="1.00" d=" M 565.87 266.84 C 583.16 262.35 600.07 256.44 617.51 252.51 C 617.61 253.10 617.81 254.27 617.91 254.85 C 589.86 262.73 561.92 270.97 533.90 278.95 C 528.77 280.34 523.75 282.24 518.46 282.99 C 517.97 282.09 517.48 281.19 516.98 280.30 C 519.81 279.79 522.65 279.23 525.42 278.43 C 538.89 274.50 552.44 270.89 565.87 266.84 Z" />
</g>
<g id="#212030ff">
<path fill="#212030" opacity="1.00" d=" M 528.18 285.23 C 558.72 276.42 589.24 267.55 619.83 258.92 C 620.10 259.45 620.65 260.49 620.93 261.01 C 610.97 264.70 600.64 267.22 590.54 270.45 C 571.57 275.68 552.70 281.26 533.79 286.71 C 530.25 287.60 526.74 288.63 523.42 290.16 C 523.27 293.88 523.12 297.63 522.31 301.28 C 522.49 296.75 521.72 292.14 522.73 287.68 C 524.21 286.28 526.31 285.87 528.18 285.23 Z" />
<path fill="#212030" opacity="1.00" d=" M 81.96 277.79 C 83.89 276.64 85.98 274.84 88.38 275.79 C 113.28 283.01 138.00 290.84 162.87 298.22 C 169.60 300.10 176.19 302.88 183.27 303.16 C 183.13 304.49 183.01 305.82 182.90 307.16 C 166.30 302.82 150.01 297.43 133.58 292.51 C 123.98 289.91 114.52 286.82 105.00 283.94 C 97.39 281.68 89.89 278.79 81.96 277.79 Z" />
</g>
<g id="#2e2e3bff">
<path fill="#2e2e3b" opacity="1.00" d=" M 82.85 264.07 C 88.63 266.70 94.82 268.23 100.87 270.11 C 129.52 278.87 158.34 287.06 186.93 295.99 C 186.06 297.23 185.28 298.52 184.50 299.83 C 177.60 298.19 170.89 295.85 164.08 293.90 C 137.39 285.82 110.61 278.01 83.97 269.76 C 83.63 267.85 83.30 265.94 82.85 264.07 Z" />
</g>
<g id="#353440ff">
<path fill="#353440" opacity="1.00" d=" M 77.46 277.49 C 80.14 276.30 81.66 273.61 84.06 272.05 C 88.28 272.78 92.31 274.35 96.43 275.51 C 124.66 283.97 152.87 292.46 181.10 300.89 C 182.40 301.07 183.12 301.83 183.27 303.16 C 176.19 302.88 169.60 300.10 162.87 298.22 C 138.00 290.84 113.28 283.01 88.38 275.79 C 85.98 274.84 83.89 276.64 81.96 277.79 C 78.45 280.66 73.36 281.37 69.65 278.44 C 72.26 278.32 75.00 278.54 77.46 277.49 Z" />
</g>
<g id="#3f4250ff">
<path fill="#3f4250" opacity="1.00" d=" M 215.29 302.73 C 217.12 305.88 217.55 309.65 216.23 313.08 C 213.87 322.72 200.66 327.29 192.84 321.18 C 198.89 322.81 205.92 322.15 210.54 317.55 C 214.76 313.90 215.80 308.04 215.29 302.73 Z" />
</g>
<g id="#0c0d21ff">
</g>
</svg>
