<svg id="Layer_2" data-name="Layer 2" xmlns="http://www.w3.org/2000/svg" viewBox="0 0 1080 1080"><defs><style>.cls-1{fill:#fff;}</style></defs><g id="_-" data-name="-"><path class="cls-1" d="M372.87,621.19c-.43-40.49-1.55-121.91-1.93-162.38a2.4,2.4,0,0,1,2.41-2.41c96.51-.3,238.22-3.23,333.42-2.43a4.77,4.77,0,0,1,4.72,4.84c-.6,39.39-1.18,82.64-2.64,121.78-1.85,54.24-2.53,55.19-4.41,0-1.3-39.07-2.2-82.46-2.64-121.78l4.85,4.85c-94.66.63-237.37-2-333.3-2.44l2.41-2.41c-.35,40.46-1.46,121.93-1.92,162.38a.49.49,0,0,1-1,0Z"/><path class="cls-1" d="M413.18,580.88c-.36-20.39-1.25-61.38-1.55-81.76a2,2,0,0,1,2-2c21.08-.41,42.16-.67,63.24-1,58.76-.4,131.08-3.15,189.51-1.38a4.27,4.27,0,0,1,4.39,4.37c-.61,19-1.28,42.44-2.5,61.34q-.57,10.21-1.41,20.44a.47.47,0,0,1-.52.44.48.48,0,0,1-.45-.44q-.83-10.23-1.41-20.44c-1.09-18.86-2-42.33-2.5-61.32l4.4,4.4c-36.48,1.27-89.32.24-126.34-.5-37.1-.51-89.72-1.21-126.33-1.86l2-2c-.28,20.37-1.17,61.39-1.55,81.76a.48.48,0,0,1-.5.47.47.47,0,0,1-.47-.47Z"/><path class="cls-1" d="M433.33,560.72c-.26-10.33-.92-31.11-1.13-41.44a1.58,1.58,0,0,1,1.54-1.61q53.13-1.42,106.26-2.29c35.4-1,70.79-1.89,106.18.22a3.52,3.52,0,0,1,3.69,3.65c-.61,10.07-1.2,21.12-2.14,31.11-.33,3.45-.65,6.91-1.06,10.36a.49.49,0,0,1-1,0c-.41-3.45-.73-6.91-1.06-10.36-.84-10-1.63-21-2.13-31.08l3.68,3.68c-35.39,2.11-70.78,1.23-106.18.22q-53.1-.88-106.18-2.28l1.62-1.62c-.19,10.33-.85,31.12-1.13,41.44a.49.49,0,0,1-1,0Z"/></g></svg>