<svg id="Layer_2" data-name="Layer 2" xmlns="http://www.w3.org/2000/svg" viewBox="0 0 1080 1080"><defs><style>.cls-1{fill:#fff;}</style></defs><g id="_0" data-name="0"><path class="cls-1" d="M396,1011.35C293.48,978.67,251.39,874.6,233.05,777c-13.78-73.78-17.14-149.07-17.63-224C216.11,412,222,185.4,357.22,105c71.5-41.82,177.35-45.11,258-35,37.31,5.43,75.25,14.65,108,34.1C790.54,143.42,825,218.6,842.77,291.5c15,61,20.52,124,23.05,186.48,2.48,75,1.44,150.27-6.13,225C847.44,821.69,812.47,971.22,684,1011.35a.48.48,0,0,1-.61-.32.49.49,0,0,1,.31-.61c47.42-15.92,86.6-50.82,111.1-94,24.89-43,38.39-91.67,47.38-140.28,8.69-49,12.65-98.69,14.46-148.4,2.46-74.57,1.47-149.48-5.67-223.77-3.67-37-9.14-73.9-17.92-110.06-17-70.62-49.59-143.68-114.3-182.16C687,92.66,650.47,83.7,614.07,78.15,535.2,67.74,430.89,70.4,360.75,110.88,273,163.53,244.82,271.56,231.05,366.65c-11.5,86.48-12.81,174.09-10,261.19,5.08,113.46,19,268,110.56,346.33a195.15,195.15,0,0,0,64.73,36.25.48.48,0,0,1,.31.62.49.49,0,0,1-.61.31Z"/><path class="cls-1" d="M595.75,844.12c5.82-12.39,8.71-26,10.94-39.4s3.45-27.19,4.27-40.87c3-54.52-.13-190.46.18-247.06-.12-27.31-.43-97.18-.56-123.57-.31-32.39-1.46-65-7.12-96.88-6.4-36.26-21.75-68.27-63.47-68.15-41.43.27-56.45,32.14-62.42,68.33-9.33,57.66-5.22,120.73-6.12,179.08-.18,63.74-.81,142.5-1.6,206-.33,27.43-1,54.81.43,82.2,1,20.47,2.73,41,7.55,61a106.31,106.31,0,0,0,6.42,19.4.49.49,0,0,1-.87.43c-6.29-12.34-9.61-25.95-12.19-39.47s-4.17-27.28-5.35-41c-2.33-27.43-2.51-55-2.84-82.49-.86-63.36-1.36-142.31-1.6-206,.66-59-2.89-122.42,7.37-180.67C475.94,254.54,494,220.49,540,220.4c32.4-.11,54.23,19.21,64,49.23a184.94,184.94,0,0,1,6.21,25.49c5.47,32.39,6.34,65.34,6.37,98.08-.1,26.1-.42,96.59-.54,123.59-.24,30.44-.92,178.23-1.32,206-.58,27.48-1.94,55.05-6.56,82.19-2.4,13.54-5.48,27.14-11.51,39.59a.49.49,0,0,1-.87-.43Z"/><path class="cls-1" d="M618.41,855.24c5.94-12.45,9.32-26.08,12-39.58,8-44.65,7.27-90.19,7-135.39-1-82.51-.58-229.63-1.83-310.66-1.42-36.46-3.36-73.74-15.17-108.47-9.94-27.4-30-49.59-59.21-55.92-20.59-4.49-43.28-2.51-61.89,7.69-17.15,9.3-29.5,25.71-36.77,43.57-8.58,22-11.58,45.68-13.75,69.18-2.6,29.35-2.59,58.75-2.48,88.27,0,84.66-.67,181.82-1.64,266.35-.48,46.05-1.84,92.46,6.17,138,.86,4.56,2.27,11.52,3.6,16.16a126.73,126.73,0,0,0,7.22,20.83.5.5,0,0,1-.24.65.49.49,0,0,1-.64-.22A128.83,128.83,0,0,1,452.46,835c-1.89-6-3.5-12.74-4.86-18.91-9.14-44.63-9.37-90.44-9.84-135.78-1-84.49-1.62-181.73-1.65-266.35.07-44.61.24-89.71,9.81-133.59a172,172,0,0,1,8.4-27.21c8.21-19.53,22-37.37,41-47.43,20.54-11,45-13,67.55-7.9,31.62,7.15,53.44,31.17,64,61,11.82,35.62,13.52,73.5,14.65,110.65.54,80.55-1,228.86-1.2,310.81-.28,46.2.09,92.89-9.1,138.38-2.68,12.65-6.19,25.36-11.9,37a.49.49,0,0,1-.87-.43Z"/><path class="cls-1" d="M411.85,963.41c-31.84-10.08-59-31.47-77.87-58.84-42.64-62.39-55.39-146.5-62.51-220.42-5.74-65.82-6.61-132-4.66-198,2-55,6.26-110.25,17.45-164.29,13.76-63.94,37.17-133.35,94.56-170.9,28.32-18.2,62.06-25.87,94.87-30.78,68.59-8.88,168.05-7.24,228,29.93,28.68,18.22,50.16,46.24,64.87,76.38,19.46,40.21,30.18,83.76,37.32,127.6,10.3,65.61,12.79,131.88,12.61,198.11-.61,77.11-4.14,154.81-20.43,230.41-14.48,63.24-38.81,132.81-97.62,167.54a149.93,149.93,0,0,1-30.31,13.28.49.49,0,0,1-.61-.32.49.49,0,0,1,.31-.61,147.45,147.45,0,0,0,66.22-46.36c37.72-47.36,52-108.52,61.53-167.17,12.55-86.81,13.25-175,10.29-262.56-4.5-91.4-13.11-205.76-64-283.71-17.8-26.71-43.28-48.41-73.59-59.46-71.89-26.29-184.89-26.59-256.92-.73C336.24,169.19,305.33,251.08,289.92,323c-19.81,96.85-21,196.54-18.74,295,3.7,93.52,13.18,224.11,74.13,298.58a145.52,145.52,0,0,0,66.85,45.82.49.49,0,0,1-.31.93Z"/><path class="cls-1" d="M550.33,955.15c3-.42,6.49-1.22,9.72-1.47l1.83-.31c2.21-.38,5.17-.85,7.34-1.25,3.55-.82,7.37-1.66,10.82-2.73,34.29-9.86,61.51-32.83,79-63.66,8.49-15.14,14.29-31.73,18.23-48.6,8.36-36.4,10.17-73.93,10.8-111.16.25-39.68-.2-138.29-.2-179.34l-.23-119.57c0-44.74.26-89.65-6.42-134-4.44-29.19-12.3-58.47-28.92-83.19a146.65,146.65,0,0,0-13.73-17.28L636.07,190l-1.27-1.33a14.6,14.6,0,0,0-1.32-1.29L628,182.4c-.87-.86-1.88-1.56-2.83-2.33-39-32.1-96.6-37.61-142.3-17.14a141.06,141.06,0,0,0-13,6.84c-3,1.74-6.28,4.07-9.19,6-2.79,2.13-5.94,4.55-8.6,6.85l-5.4,5a141.08,141.08,0,0,0-26.15,35.23c-13.46,25-19,53.45-22.6,81.42-4.92,40.73-4.6,81.78-4.46,122.8.15,59.63.21,179.54.34,239.14.38,59.07-1.78,119.91,13.16,177.47,10.33,39.5,33.3,74.29,70.16,93.38,16.11,8.41,34.14,13,52.24,14.39a3.7,3.7,0,0,1-.35,7.39,455.45,455.45,0,0,1-68.7-6,295.1,295.1,0,0,1-42.08-10.28c-28.24-9.06-51.85-28.75-68.11-53.29C282,787,285.44,565.44,292,442.71,297.66,367,308.48,275,351.47,210.53c13.35-19.48,31.17-36.19,52.46-46.69,9.19-4.65,19-8,28.85-10.85C467.56,143.05,504,139.9,540,139.88s72.4,3.35,107.15,13.37c9.82,2.93,19.61,6.21,28.77,10.89,32,15.75,54.8,45.23,69.39,77.09,14.6,31.45,23.41,65.27,29.79,99.15,12.15,67.71,15,136.62,15.12,205.26C789.16,648.7,785.74,791,732.67,880.75c-14.84,24.67-36.62,45.78-63.69,56.38-26.83,10.16-55.45,14.66-83.92,17-11.53.75-23.18,1.82-34.73,1Zm1,0c5.55-.75,11-.9,16.58-1.19s11.37-.75,17-1.3c28.19-2.8,56.59-7.61,83-18,24.95-10.16,45.24-29.47,59.26-52.22C740,862,748.78,839.33,755.73,816.33c13-43.57,19.17-88.93,22.9-134.17,6.72-90.69,6.29-182.26-2.28-272.82C768.84,339.5,752.67,240,698.84,191.09,684.52,178,667.07,169,648.5,163.66a286.52,286.52,0,0,0-41-9.15c-58.36-8.24-127.79-6.95-183.86,12a123,123,0,0,0-53.67,36.69c-44.28,52.27-58.42,139.46-65.48,206.22-8.42,90.5-8.68,182-1.77,272.63,4.94,56.21,13.19,113.1,34.63,165.6,17.92,43,44.73,77.53,91.48,90.05,32.55,9.54,66.54,13,100.44,13.73l-.33,7.39a150.32,150.32,0,0,1-33.8-6.51,135.1,135.1,0,0,1-69.66-51.58C391.3,852.93,389,783,387.57,726c-.26-39.68.14-138.35.11-179.41,1.21-70.33-3-170.13,4.6-239.3,3.62-29.85,9.41-60.16,23.83-86.9A146.25,146.25,0,0,1,443.3,184l5.63-5.13c2.76-2.4,6-4.87,8.95-7.08,3-1.89,6.42-4.57,9.56-6.25a141.67,141.67,0,0,1,13.47-7.06c47.33-21,106.76-15.08,147,18.25,1.47,1,7,6.13,8.52,7.55s3.88,4,5.26,5.47a152.18,152.18,0,0,1,14.07,17.84c16.86,25.3,24.82,55.16,29.22,84.91,6.55,44.53,6.12,89.67,6,134.52-.18,59.61-.29,179.54-.45,239.14-.53,65.67,3,154.46-26.58,213.64-14.85,29.41-38.77,53-69.36,65.71l-7,2.65c-2.52,1-4.7,1.4-7.16,2.24s-4.84,1.27-7.27,1.85a74.7,74.7,0,0,1-7.35,1.48l-3.7.61-1.85.3c-3,.38-5.7.26-8.87.43Z"/></g></svg>