<svg width="33" height="26" viewBox="0 0 33 26" fill="none" xmlns="http://www.w3.org/2000/svg">
<path d="M32.9325 17.9711C32.9234 17.6939 32.9194 17.4164 32.9075 17.1391C32.8956 16.8619 32.8813 16.585 32.8593 16.3085C32.829 15.9239 32.8036 15.538 32.7523 15.1557C32.6688 14.5342 32.5781 13.9129 32.4685 13.2956C32.2648 12.149 31.9704 11.0242 31.6119 9.91672C31.3838 9.21193 31.1275 8.51767 30.8429 7.83395C30.5162 7.04992 30.1567 6.28139 29.7643 5.52837C29.453 4.9321 29.1262 4.34577 28.775 3.77275C28.5482 3.40227 28.313 3.03735 28.0782 2.67144C28.0493 2.62371 28.0083 2.58454 27.9593 2.55795C27.21 2.20483 26.4448 1.89019 25.6638 1.61405C24.3199 1.13443 22.9385 0.767718 21.5339 0.517713C21.3784 0.490483 21.3792 0.489688 21.3027 0.632594C21.0364 1.12949 20.7972 1.6393 20.5757 2.15746C20.5329 2.25783 20.5291 2.25922 20.4242 2.2467C19.9422 2.18926 19.4607 2.12565 18.9767 2.07716C18.6215 2.04158 18.2648 2.02091 17.9083 2.00282C17.6035 1.98732 17.2983 1.98016 16.9933 1.97818C16.7726 1.97659 16.5519 1.98871 16.3314 1.99547C16.0867 2.00282 15.8418 2.00819 15.5977 2.02011C15.3493 2.03204 15.1004 2.04297 14.8531 2.06841C14.3263 2.12247 13.8004 2.18508 13.2741 2.24531C13.1619 2.25803 13.1625 2.25982 13.1155 2.15308C12.8835 1.62618 12.6364 1.10663 12.3592 0.602781C12.2997 0.493266 12.2892 0.487303 12.1694 0.511949C11.6977 0.609141 11.2241 0.700171 10.7548 0.808295C9.87427 1.01311 9.00574 1.26658 8.15315 1.56755C7.33353 1.85455 6.53011 2.18197 5.74288 2.5498C5.68944 2.57594 5.64361 2.61544 5.60982 2.66448C5.48985 2.84058 5.37663 3.02225 5.26261 3.20113C4.70738 4.07884 4.19644 4.98179 3.72979 5.90998C3.57551 6.21507 3.43234 6.52613 3.28719 6.83559C2.88392 7.70428 2.52649 8.59362 2.2164 9.49993C1.91283 10.3828 1.65575 11.2811 1.44622 12.1911C1.28382 12.8971 1.14382 13.6074 1.04566 14.3253C0.982011 14.7914 0.922324 15.2583 0.878501 15.7266C0.82972 16.2465 0.779353 16.7679 0.76805 17.2896C0.749212 18.1222 0.734539 18.9558 0.780741 19.7884C0.800571 20.1336 0.816236 20.479 0.837057 20.8241C0.844791 20.9523 0.868388 21.0799 0.871957 21.2079C0.874535 21.3005 0.917763 21.3542 0.988356 21.4031C1.50789 21.7608 2.02128 22.1285 2.54596 22.4789C3.19498 22.9124 3.87196 23.2998 4.56203 23.6637C5.16286 23.9807 5.77546 24.2734 6.39983 24.542C7.21978 24.8958 8.05579 25.2047 8.90628 25.4762C9.02426 25.5138 9.02684 25.5142 9.10081 25.4056C9.30227 25.1097 9.50671 24.8157 9.70104 24.5152C10.0683 23.9475 10.4027 23.3592 10.7028 22.7532C10.7199 22.7186 10.7332 22.6821 10.7467 22.6501C10.2781 22.4398 9.81725 22.242 9.36414 22.0278C8.72028 21.7231 8.12698 21.381 8.04568 21.2826C8.05418 21.2698 8.06402 21.258 8.07503 21.2472C8.26301 21.0962 8.45179 20.9461 8.63937 20.7945C8.683 20.7591 8.72246 20.7603 8.77183 20.7839C8.89498 20.8436 9.0205 20.8968 9.14542 20.9521C10.3325 21.4791 11.5688 21.887 12.8361 22.1699C13.4597 22.309 14.0881 22.4215 14.7239 22.4863C15.1746 22.5322 15.6263 22.5827 16.0788 22.598C16.6604 22.6179 17.2436 22.629 17.8256 22.5851C18.0616 22.5674 18.2989 22.5612 18.5339 22.5348C18.9805 22.4843 19.4262 22.4332 19.8712 22.3643C20.8097 22.2186 21.7278 21.9842 22.6311 21.6911C23.4025 21.4393 24.1574 21.1396 24.8916 20.7937C24.9648 20.7593 25.0148 20.7655 25.0755 20.8159C25.239 20.9525 25.4074 21.0831 25.5734 21.2168C25.5996 21.2379 25.6222 21.2635 25.6579 21.2981C24.7814 21.8348 23.8732 22.2679 22.9168 22.6439C23.011 22.824 23.0943 22.984 23.1786 23.1436C23.586 23.9162 24.0451 24.6603 24.5528 25.3708C24.66 25.5213 24.635 25.5249 24.8355 25.4599C25.7387 25.1707 26.6263 24.8345 27.4947 24.4528C28.175 24.1515 28.8431 23.8243 29.4943 23.4662C30.3172 23.0162 31.1148 22.5215 31.8837 21.984C32.1669 21.7853 32.4457 21.581 32.7271 21.38C32.7751 21.3458 32.8076 21.3085 32.8123 21.2441C32.8322 20.9875 32.8585 20.7317 32.8764 20.4751C32.8962 20.1905 32.9129 19.9054 32.9242 19.6204C32.9383 19.2627 32.9503 18.9049 32.9543 18.5471C32.9565 18.3563 32.9388 18.1637 32.9325 17.9711ZM13.8611 16.165C13.453 16.8179 12.8928 17.2816 12.1389 17.4768C11.4076 17.6656 10.7189 17.5412 10.0847 17.1346C9.4734 16.7422 9.0669 16.1845 8.81566 15.5081C8.70479 15.2014 8.63511 14.8812 8.60844 14.5561C8.55596 13.9968 8.63473 13.4329 8.83846 12.9096C9.10576 12.2165 9.53924 11.6548 10.1894 11.2798C10.5732 11.0555 11.0086 10.9352 11.4528 10.9306C12.1407 10.9208 12.7369 11.1556 13.2529 11.5988C13.8603 12.1207 14.2075 12.7925 14.3406 13.5768C14.3768 13.7901 14.3862 14.0079 14.4078 14.2238C14.3941 14.9204 14.2315 15.5727 13.8611 16.165ZM25.0808 14.6408C25.0306 15.1422 24.8737 15.6271 24.6208 16.0627C24.4254 16.4006 24.1921 16.6909 23.9166 16.9235C23.7788 17.04 23.6296 17.1421 23.4712 17.2284C23.3792 17.2782 23.2843 17.3226 23.1871 17.3615C23.087 17.4013 22.9847 17.4353 22.8807 17.4633C22.8014 17.4848 22.7198 17.5031 22.636 17.5184C21.9049 17.6517 21.2369 17.4731 20.6434 17.0372C20.5109 16.94 20.386 16.8329 20.2696 16.717C20.2318 16.6792 20.195 16.6407 20.1593 16.6015C20.0712 16.5042 19.9893 16.4014 19.914 16.2938C19.8544 16.2082 19.7992 16.1199 19.7483 16.0289C19.7229 15.9834 19.6987 15.9373 19.6753 15.8898C19.6519 15.8423 19.6299 15.7953 19.6089 15.7472C19.5983 15.7234 19.588 15.6991 19.5779 15.6747C19.5383 15.5773 19.5024 15.4775 19.4702 15.3752C19.4623 15.3495 19.4546 15.3239 19.4471 15.2979C19.4322 15.2462 19.4184 15.1939 19.4054 15.141C19.3861 15.0615 19.3691 14.9809 19.3542 14.8992C19.2246 14.1852 19.2948 13.4866 19.5751 12.8154C19.8428 12.1738 20.2589 11.6527 20.8615 11.2943C21.2708 11.051 21.7132 10.9212 22.193 10.9268C22.9267 10.9332 23.5537 11.2029 24.0802 11.7111C24.6533 12.2642 24.9694 12.9491 25.0671 13.7317C25.0863 13.8833 25.0972 14.0359 25.0998 14.1888C25.0998 14.214 25.0998 14.2393 25.0998 14.2645C25.0997 14.3917 25.0934 14.5171 25.0808 14.6408Z" fill="url(#paint0_linear_8_61)"/>
<defs>
<linearGradient id="paint0_linear_8_61" x1="16.8433" y1="0.500889" x2="16.8433" y2="25.4909" gradientUnits="userSpaceOnUse">
<stop stop-color="white"/>
<stop offset="1" stop-color="#BAE4F2"/>
</linearGradient>
</defs>
</svg>
