<svg width="31" height="26" viewBox="0 0 31 26" fill="none" xmlns="http://www.w3.org/2000/svg">
<path d="M9.34663 20.0572C5.98597 19.9427 3.95591 17.5356 3.43674 15.7085C3.90039 15.7291 4.37212 15.7651 4.84405 15.769C5.31598 15.7729 5.77817 15.6881 6.26295 15.5609C4.40153 15.132 2.98635 14.1321 2.03047 12.5179C1.44728 11.5325 1.17672 10.4593 1.18315 9.29384C2.07397 9.77272 3.00976 10.04 4.04726 10.0783C2.6671 9.11187 1.76529 7.85045 1.39674 6.24194C1.02901 4.63673 1.27056 3.11252 2.0835 1.66563C5.52252 5.69234 9.8752 7.89692 15.1767 8.25982C15.1352 7.96271 15.0846 7.69007 15.0596 7.41517C14.9218 5.91625 15.2605 4.53022 16.1147 3.28606C17.0818 1.87577 18.4108 0.959763 20.1 0.634485C22.3478 0.202699 24.3002 0.815013 25.9365 2.40851C25.9932 2.46382 26.0384 2.49198 26.1275 2.47348C27.4693 2.19578 28.7577 1.70711 29.9441 1.02597C29.9715 1.01034 30.0003 0.997391 30.0523 0.971278C29.5463 2.45292 28.6378 3.58728 27.3305 4.41199C27.333 4.42351 27.3355 4.43502 27.3377 4.44654C27.6366 4.3976 27.9372 4.35689 28.234 4.29747C28.5307 4.23805 28.8294 4.16753 29.1231 4.08713C29.4206 4.00591 29.7157 3.9138 30.0071 3.81325C30.2926 3.71476 30.5722 3.59962 30.8896 3.47831C30.8303 3.56796 30.7925 3.62882 30.7511 3.68721C29.9509 4.82517 28.9682 5.82535 27.8422 6.64802C27.7677 6.7023 27.7375 6.75598 27.7415 6.84953C27.779 7.73845 27.7456 8.62893 27.6414 9.51262C27.4919 10.7819 27.2092 12.0322 26.7979 13.2433C26.0432 15.4674 24.9238 17.4922 23.4052 19.2928C21.4833 21.5715 19.1324 23.2611 16.3328 24.3251C15.1422 24.7756 13.9057 25.0964 12.6453 25.2817C11.2489 25.4933 9.83317 25.5513 8.42395 25.4547C5.55795 25.2533 2.89001 24.4211 0.42014 22.9582C0.279256 22.8747 0.140251 22.7884 0 22.6891C3.44896 23.0123 6.55672 22.1553 9.34663 20.0572Z" fill="url(#paint0_linear_8_55)"/>
<defs>
<linearGradient id="paint0_linear_8_55" x1="15.4362" y1="0.500889" x2="15.4362" y2="25.4909" gradientUnits="userSpaceOnUse">
<stop stop-color="white"/>
<stop offset="1" stop-color="#BAE4F2"/>
</linearGradient>
</defs>
</svg>
