<svg id="Layer_1" data-name="Layer 1" xmlns="http://www.w3.org/2000/svg" viewBox="0 0 1080 1080"><defs><style>.cls-1{fill:#fff;}</style></defs><path class="cls-1" d="M284.14,284.17c-.08-.07.88-.91,1.31-1.36,88.37-90.08,220.68-126.06,342.9-95.51C732.58,213,821.82,288.35,867.64,385c71,151.07,32.18,329.74-96.85,436.19-126.67,105.63-315.46,109.82-446.63,9.82-14-10.93-40.21-35.27-40-35.49s26.41,24,40.81,34.42c99.8,74.13,238.23,90.6,352.65,42.25C848,801.83,938.34,611.8,885.5,435.19c-80.64-260.82-405.61-338.73-600-152.33C285,283.29,284.27,284.29,284.14,284.17Z"/></svg>