<svg id="Layer_1" data-name="Layer 1" xmlns="http://www.w3.org/2000/svg" viewBox="0 0 1080 1080"><defs><style>.cls-1{fill:#fff;}</style></defs><path class="cls-1" d="M235.13,845.08c-108.24-105.38-151.52-264-115-410.26,35.49-145,151.93-265.09,294.51-308,190.94-57.48,393.44,19.81,496.89,190.45,89.49,147.32,79.75,342.63-24.93,479.75-12.94,16.67-26.88,33.27-42,47.62,0,0-.09.1-.1.09s.06-.07.09-.1c14.07-15.46,28.57-31.34,41-48.41,88.53-118.88,108.24-283.93,50.63-420.37C842.6,150,577.38,46.86,356,150.93c-250.69,118.63-323.76,446-149.43,661,.8,1.05,1.69,2,2.54,3l5.14,6c6.68,8.2,14.12,15.71,21.29,23.48C235.91,845.26,235.13,845.08,235.13,845.08Z"/></svg>